<svg width="354" height="650" viewBox="0 0 354 650" fill="none" xmlns="http://www.w3.org/2000/svg">
<path fill-rule="evenodd" clip-rule="evenodd" d="M168.806 629.584L168.653 615.004L185.689 605.535L188.161 647.216H129.139C139.181 634.733 168.806 629.584 168.806 629.584ZM237.325 630.153L237.172 613.776L253.506 626.375L256.125 629.247L260.166 647.216H219.769C224.848 631.95 237.325 630.153 237.325 630.153Z" fill="url(#paint0_linear)"/>
<path fill-rule="evenodd" clip-rule="evenodd" d="M235.536 613.776L252.572 608.127L256.125 629.247L237.325 630.152L235.536 613.776ZM168.652 615.005L185.688 609.355L187.061 628.679L168.806 629.584L168.652 615.005Z" fill="#EACFE2"/>
<path d="M219.129 606.902H216.455L218.09 623.748H263.134L261.499 606.902H258.518L224.98 331.194L203.908 331.194L152.657 331.194L156.913 607.202H154.616V623.448H199.659V607.202H197.11L199.66 503.691L219.129 606.902Z" fill="#2F2F3D"/>
<path opacity="0.200358" fill-rule="evenodd" clip-rule="evenodd" d="M200.413 513.26L181.645 379.778L198.712 551.815L200.413 513.26Z" fill="black"/>
<path d="M123.028 371.041L118.728 379.071L117.652 380.677C116.936 380.142 115.287 378.536 114.427 376.394C113.567 374.253 116.219 365.509 117.652 361.405C118.011 360.87 120.448 357.979 127.328 350.699C135.929 341.598 132.166 358.729 133.241 362.476C134.101 365.474 126.791 369.435 123.028 371.041Z" fill="#E576C6"/>
<g filter="url(#filter0_d)">
<path d="M131.577 277.228L143.009 283.372L145.839 331.567H224.739L226.062 282.942L251.01 264.055C251.01 264.055 239.244 240.169 219.115 230.663C213.87 228.191 207.273 226.877 200.681 226.25C187.464 224.99 174.287 226.453 172.145 226.716L171.842 226.752C171.469 226.865 171.094 226.979 170.733 227.092C170.727 227.092 170.721 227.098 170.715 227.098C169.647 227.432 168.639 227.755 167.678 228.071C154.323 232.496 150.099 236.079 142.617 246.684C135.504 256.764 131.577 277.228 131.577 277.228Z" fill="#E64C3C"/>
<path opacity="0.200219" fill-rule="evenodd" clip-rule="evenodd" d="M201.735 271.763L219.083 292.157L228.13 285.958L223.994 279.923L220.385 282.395L207.308 267.022L201.735 271.763Z" fill="black"/>
<path fill-rule="evenodd" clip-rule="evenodd" d="M163.81 317.493C163.81 317.493 161.318 318.132 161.271 319.708C161.271 320.156 176.453 323.046 176.453 323.046L173.148 323.243L169.712 323.076C169.712 323.076 167.927 323.41 167.826 324.903C167.791 325.494 170.953 326.127 174.631 326.611C180.351 327.369 184.462 326.7 188.484 325.596C188.823 325.5 189.149 325.417 189.463 325.333L186.194 304.177C185.097 305.186 183.02 306.977 174.085 309.222C172.294 309.67 166.278 309.754 166.278 309.754C164.51 310.011 160.796 310.357 160.54 312.453C160.476 312.972 161.122 313.534 161.122 313.534C161.122 313.534 158.791 313.695 158.648 315.821C158.588 316.657 163.81 317.493 163.81 317.493Z" fill="#18181C"/>
<path fill-rule="evenodd" clip-rule="evenodd" d="M137.934 346.955H193.127L180.75 270.277H125.556L137.934 346.955Z" fill="#18181C"/>
<path fill-rule="evenodd" clip-rule="evenodd" d="M134.967 346.955H190.161L177.783 270.277H122.589L134.967 346.955Z" fill="#5E93D1"/>
<path fill-rule="evenodd" clip-rule="evenodd" d="M200.681 226.25C198.736 229.337 192.607 237.034 179.454 237.817C163.744 238.742 167.309 228.997 167.677 228.071C167.701 228.024 167.713 228 167.713 228C167.713 228 168.882 227.606 170.715 227.098C170.718 227.098 170.721 227.097 170.724 227.095C170.727 227.094 170.73 227.092 170.733 227.092C171.166 226.973 171.64 226.847 172.145 226.716C174.287 226.453 187.464 224.99 200.681 226.25ZM202.774 301.154L198.944 299.835C198.944 299.835 196.487 298.868 192.34 298.098C190.807 297.813 189.523 297.762 188.178 297.709C187.238 297.671 186.267 297.633 185.161 297.512L186.075 303.418C186.247 303.544 186.402 303.693 186.55 303.854C186.466 303.925 186.382 304.003 186.291 304.087L186.291 304.087L186.193 304.177C185.096 305.186 183.02 306.977 174.085 309.222C172.293 309.67 166.278 309.754 166.278 309.754C166.212 309.763 166.145 309.773 166.074 309.783C166.003 309.793 165.93 309.803 165.854 309.813C163.977 310.072 160.777 310.512 160.54 312.453C160.475 312.972 161.122 313.534 161.122 313.534C161.122 313.534 158.79 313.695 158.648 315.821C158.588 316.657 163.81 317.493 163.81 317.493C163.81 317.493 161.318 318.132 161.27 319.708C161.27 320.156 176.452 323.046 176.452 323.046L173.147 323.243L169.712 323.076C169.712 323.076 167.926 323.41 167.826 324.903C167.791 325.494 170.953 326.127 174.63 326.611C180.35 327.369 184.462 326.7 188.484 325.596C188.73 325.526 188.97 325.463 189.204 325.401L189.204 325.401C189.291 325.378 189.377 325.356 189.462 325.333C190.058 325.176 190.606 325.037 191.123 324.906L191.124 324.906C194.207 324.126 196.216 323.617 200.777 321.117C201.27 320.847 201.812 320.521 202.374 320.162C216.047 321.469 257.49 324.681 261.644 316.088C269.858 299.092 248.24 266.202 248.24 266.202L224.31 283.046L231.914 296.048L202.774 301.154ZM147.817 344.322H135.109L132.258 326.662L126.415 351.788C122.808 355.952 118.645 360.868 118.015 362.078C116.874 364.272 114.762 375.135 114.863 377.281C114.964 379.427 121.541 389.071 121.541 389.071C125.621 388.092 122.956 383.112 122.956 383.112C122.956 383.112 126.611 386.137 128.131 386.087C142.442 385.609 141.675 378.517 141.336 377.629C140.576 375.634 136.757 377.915 136.757 377.915C136.757 377.915 143.391 364.741 142.531 354.675C144.016 351.85 145.845 348.303 147.817 344.322Z" fill="#EACFE2"/>
<path opacity="0.199382" fill-rule="evenodd" clip-rule="evenodd" d="M135.811 361.661C135.811 361.66 135.811 361.659 133.693 361.086C131.574 360.513 131.574 360.512 131.574 360.511L131.574 360.51L131.575 360.508L131.576 360.505C131.576 360.505 131.575 360.506 131.575 360.508L131.565 360.542C131.554 360.578 131.535 360.639 131.508 360.723C131.453 360.889 131.364 361.143 131.236 361.46C130.979 362.096 130.57 362.973 129.974 363.91C128.775 365.797 126.905 367.8 124.094 368.743C123.148 369.061 122.55 369.738 122.189 370.276C121.823 370.822 121.555 371.442 121.348 371.99C121.149 372.516 120.964 373.093 120.792 373.627C120.781 373.66 120.771 373.693 120.761 373.725C120.573 374.308 120.394 374.859 120.194 375.386C119.777 376.488 119.37 377.195 118.95 377.581C118.666 377.843 118.308 378.042 117.495 377.885L116.662 382.195C118.802 382.609 120.584 382.044 121.923 380.811C123.127 379.702 123.828 378.186 124.299 376.942C124.544 376.296 124.755 375.644 124.94 375.069L124.957 375.015C125.141 374.442 125.296 373.962 125.454 373.542C125.592 373.179 125.702 372.945 125.784 372.803C129.696 371.396 132.189 368.61 133.679 366.265C134.447 365.056 134.972 363.932 135.306 363.105C135.474 362.69 135.596 362.345 135.678 362.096C135.719 361.972 135.75 361.871 135.772 361.797C135.783 361.76 135.791 361.73 135.798 361.707L135.806 361.678L135.809 361.667L135.81 361.663L135.811 361.661ZM125.867 372.678C125.867 372.677 125.865 372.68 125.86 372.686C125.865 372.681 125.867 372.678 125.867 372.678ZM131.576 360.505L131.576 360.505L131.576 360.505Z" fill="black"/>
<path fill-rule="evenodd" clip-rule="evenodd" d="M172.629 276.463C172.876 277.732 173.607 278.657 174.263 278.528C174.918 278.399 175.249 277.265 175.003 275.995C174.756 274.726 174.024 273.801 173.369 273.93C172.713 274.059 172.382 275.193 172.629 276.463Z" fill="#020101"/>
<path d="M169.56 228.182L170.071 210.454C170.071 210.454 148.64 212.169 144.055 209.775C144.055 209.775 138.453 180.756 145.135 164.686L145.27 164.06L190.495 158.742L193.309 184.513C194.832 179.997 207.126 175.19 210.413 181.659C217.535 195.675 192.07 205.112 192.07 205.112L194.655 228.396" fill="#EACFE2"/>
<path opacity="0.400274" fill-rule="evenodd" clip-rule="evenodd" d="M170.071 210.454L184.522 207.339L170.141 217.105L170.071 210.454Z" fill="black"/>
<path fill-rule="evenodd" clip-rule="evenodd" d="M158.151 181.483L153.157 193.755L159.142 193.832L158.151 181.483Z" fill="#AE9BA8"/>
<path fill-rule="evenodd" clip-rule="evenodd" d="M163.844 184.97C163.546 186.623 164.638 188.205 166.282 188.504C167.926 188.803 169.5 187.705 169.797 186.053C170.095 184.4 169.003 182.818 167.359 182.519C165.715 182.221 164.141 183.318 163.844 184.97Z" fill="#382525"/>
<path fill-rule="evenodd" clip-rule="evenodd" d="M148.137 184.97C147.84 186.623 148.932 188.205 150.576 188.504C152.22 188.803 153.793 187.705 154.091 186.053C154.388 184.4 153.297 182.818 151.652 182.519C150.008 182.221 148.435 183.318 148.137 184.97Z" fill="#382525"/>
<path fill-rule="evenodd" clip-rule="evenodd" d="M164.36 197.307C164.36 197.307 162.268 200.717 158.125 200.428L164.36 197.307Z" fill="white"/>
<path fill-rule="evenodd" clip-rule="evenodd" d="M165.606 198.073C165.607 198.073 165.607 198.072 164.36 197.307C163.112 196.542 163.113 196.541 163.113 196.541L163.114 196.54L163.115 196.538L163.117 196.535C163.117 196.534 163.118 196.533 163.118 196.533L163.118 196.533L163.112 196.543C163.104 196.555 163.088 196.578 163.066 196.61C163.02 196.675 162.945 196.777 162.841 196.902C162.632 197.155 162.314 197.494 161.893 197.824C161.057 198.48 159.846 199.081 158.227 198.968L158.023 201.888C160.547 202.064 162.454 201.104 163.699 200.127C164.319 199.641 164.783 199.146 165.096 198.768C165.253 198.579 165.373 198.416 165.458 198.296C165.501 198.236 165.534 198.186 165.559 198.148C165.571 198.129 165.582 198.113 165.59 198.1L165.6 198.084L165.604 198.077L165.606 198.075L165.606 198.073Z" fill="#252535"/>
<path fill-rule="evenodd" clip-rule="evenodd" d="M193.036 184.788C196.413 181.268 200.089 179.777 202.318 179.158L201.893 170.276L180.648 166.552C182.112 176.461 187.799 181.867 193.036 184.788Z" fill="#EFA83C"/>
<path fill-rule="evenodd" clip-rule="evenodd" d="M143.881 168.151C145.795 166.32 158.269 165.754 173.265 166.914C176.752 167.184 180.096 167.524 183.188 167.919C193.41 169.209 200.93 171.045 202.155 172.659C203.512 152.488 191.223 140.474 175.132 139.357C164.576 138.622 155.003 142.763 149.272 151.391C146.34 155.813 144.411 161.418 143.881 168.151Z" fill="#393954"/>
<path fill-rule="evenodd" clip-rule="evenodd" d="M143.639 168.55H143.645C143.665 168.41 143.747 168.275 143.881 168.151C145.795 166.32 158.269 165.753 173.265 166.914C176.753 167.184 180.096 167.524 183.188 167.918C178.79 163.718 170.744 157.077 161.253 154.096C157.195 152.822 153.079 151.893 149.273 151.391C140.033 150.16 132.621 151.424 132.25 156.245C131.772 162.519 142.045 167.773 143.639 168.55Z" fill="#161629"/>
</g>
<g filter="url(#filter1_d)">
<path d="M230.723 115.203L217.598 152.454L290.592 117.684C321.408 102.058 358.79 62.0491 261.789 27.0285C164.789 -7.99217 128.126 78.1622 230.723 115.203Z" fill="#FAFAFA"/>
</g>
<g filter="url(#filter2_d)">
<path d="M223.163 62.6207L229.752 53.8844C230.596 52.7647 231.875 52.1128 233.227 52.1128L233.399 52.1128C234.751 52.1128 236.03 52.7647 236.874 53.8844L243.463 62.6207C244.094 63.4576 244.438 64.4975 244.438 65.5694L244.438 85.1551C244.438 87.762 242.446 89.8754 239.988 89.8754L226.638 89.8754C224.18 89.8754 222.188 87.762 222.188 85.1551L222.188 65.5695C222.188 64.4976 222.532 63.4577 223.163 62.6207Z" fill="#802F34"/>
<path d="M241.1 66.2738L227.751 66.2738C225.907 66.2738 224.413 67.8588 224.413 69.814C224.413 71.7693 225.907 73.3542 227.751 73.3542L241.1 73.3542C242.944 73.3542 244.438 71.7693 244.438 69.814C244.438 67.8588 242.944 66.2738 241.1 66.2738Z" fill="#C03A2B"/>
<path d="M260.014 54.473L233.314 54.473C232.085 54.473 231.089 55.5296 231.089 56.8331C231.089 58.1366 232.085 59.1932 233.314 59.1932L260.014 59.1932C261.242 59.1932 262.238 58.1366 262.238 56.8331C262.238 55.5297 261.242 54.473 260.014 54.473Z" fill="#2B315B"/>
<path d="M233.314 56.8333L260.013 56.8333C260.795 56.8426 261.512 57.292 261.897 58.0134C261.512 58.7346 260.795 59.1842 260.013 59.1935L233.314 59.1935C232.532 59.1842 231.814 58.7347 231.43 58.0134C231.815 57.292 232.532 56.8425 233.314 56.8333Z" fill="#191F4C"/>
<path d="M222.228 51.2342C222.354 49.8579 224.006 49.321 224.928 50.2986L227.942 53.4954C229.171 54.7985 231.163 54.7976 232.392 53.4938C233.619 52.1905 233.619 50.0785 232.392 48.7753L229.388 45.5895C228.405 44.5469 229.066 42.8064 230.452 42.6973C231.389 42.6252 232.331 42.7129 233.242 42.9572C236.725 43.8789 239.442 47.0594 239.909 50.8349C240.051 51.9676 240.001 53.1182 239.761 54.2322L257.788 73.3543L251.113 80.4348L233.086 61.3125C232.036 61.5669 230.952 61.6202 229.884 61.4697C226.325 60.9746 223.326 58.0931 222.457 54.3983C222.21 53.3652 222.133 52.2949 222.228 51.2342Z" fill="#BFC3EC"/>
<path d="M222.458 54.3982C222.388 54.1017 222.367 53.8146 222.325 53.5233C223.109 53.5494 223.855 53.8886 224.414 54.473L226.639 56.8331C227.868 58.1365 229.86 58.1365 231.089 56.8331C232.318 55.5297 234.31 55.5296 235.539 56.833L235.539 56.8331L251.114 73.3543C252.343 74.6576 252.343 76.771 251.114 78.0744L251.114 78.0745C250.699 78.5138 250.189 78.7496 249.66 78.8927L233.087 61.3123C232.037 61.5668 230.952 61.62 229.885 61.4695C226.325 60.9745 223.327 58.093 222.458 54.3982Z" fill="#9EA4E2"/>
<path d="M248.889 66.2738L244.439 61.5534C243.21 60.2499 241.217 60.2499 239.989 61.5534C238.76 62.8569 238.76 64.9703 239.989 66.2738L244.439 70.994C245.667 72.2975 247.66 72.2975 248.889 70.994C250.117 69.6905 250.117 67.5772 248.889 66.2738Z" fill="#8B92CF"/>
<path d="M264.464 47.3925L262.239 45.0325L257.789 47.3925L257.789 49.7526L242.214 66.2738L244.439 68.6338L260.014 52.1129L262.239 52.1129L264.464 47.3925Z" fill="#E0E2FF"/>
<path d="M245.55 65.0938L261.125 48.5728C261.74 47.921 262.736 47.9209 263.35 48.5726C263.35 48.5727 263.35 48.5728 263.35 48.5728C263.485 48.7193 263.592 48.8912 263.668 49.0795L262.238 52.113L260.013 52.113L245.55 67.454C244.936 66.8021 244.936 65.7455 245.55 65.0938Z" fill="#BFC3EC"/>
<path d="M248.428 68.1452L242.674 62.0424C242.06 61.3906 241.064 61.3906 240.449 62.0424C239.835 62.6942 239.835 63.7508 240.449 64.4025L240.64 64.6049C241.509 65.5266 241.509 67.021 240.64 67.9427C240.223 68.3854 239.657 68.6339 239.067 68.6339L237.494 68.6339C236.242 68.6339 235.041 69.1614 234.156 70.1004L225.796 78.9683C223.953 80.9235 223.953 84.0936 225.796 86.0487C227.639 88.004 230.628 88.004 232.471 86.0487L240.831 77.1808C241.716 76.2418 242.214 74.9684 242.214 73.6406L242.214 71.9717C242.214 71.3458 242.448 70.7455 242.865 70.3029C243.734 69.3813 245.143 69.3813 246.012 70.3029L246.203 70.5053C246.817 71.1571 247.813 71.1571 248.428 70.5053C249.042 69.8539 249.043 68.7979 248.429 68.1458C248.429 68.1454 248.429 68.145 248.428 68.1452Z" fill="#0026FF"/>
<path d="M245.552 67.4538C244.937 68.1056 243.941 68.1056 243.327 67.4538L240.641 64.605L240.45 64.4024C239.836 63.7502 239.837 62.6935 240.452 62.0424C241.066 61.3918 242.061 61.3918 242.675 62.0424L245.552 65.0938C246.166 65.7454 246.166 66.8021 245.552 67.4538Z" fill="#3B58FF"/>
<path d="M253.34 68.634L224.415 68.634C223.186 68.634 222.19 69.6907 222.19 70.9941L222.19 85.1551C222.19 87.762 224.183 89.8754 226.64 89.8754L253.34 89.8754L253.34 68.634Z" fill="#E64C3C"/>
<path d="M226.64 85.1551L243.327 85.1551C245.171 85.1551 246.665 83.5701 246.665 81.6149L246.665 72.1742C246.665 70.219 248.159 68.634 250.002 68.634C251.846 68.634 253.34 70.219 253.34 72.1742L253.34 87.5153C253.34 88.8187 252.344 89.8753 251.115 89.8753L226.64 89.8753C225.411 89.8753 224.415 88.8187 224.415 87.5153C224.415 86.2118 225.411 85.1551 226.64 85.1551Z" fill="#C03A2B"/>
<path d="M249.864 62.6207L256.453 53.8844C257.297 52.7647 258.576 52.1128 259.928 52.1128L260.1 52.1128C261.452 52.1128 262.73 52.7647 263.575 53.8844L270.164 62.6207C270.795 63.4577 271.139 64.4976 271.139 65.5695L271.139 85.1551C271.139 87.762 269.146 89.8754 266.689 89.8754L253.339 89.8754C250.881 89.8754 248.889 87.762 248.889 85.1551L248.889 65.5695C248.889 64.4976 249.233 63.4577 249.864 62.6207Z" fill="#E64C3C"/>
<path d="M256.183 54.9526C256.798 54.953 257.295 55.4818 257.295 56.1335C257.295 56.4012 257.209 56.6608 257.051 56.8698L251.602 64.095C251.287 64.5138 251.115 65.0336 251.115 65.5694L251.115 67.2927C251.115 67.3145 251.114 67.3362 251.113 67.3576C251.114 67.3791 251.115 67.4007 251.115 67.4225L251.115 85.155C251.116 86.4579 252.111 87.5136 253.34 87.515L256.332 87.515C256.946 87.515 257.444 88.0434 257.444 88.6952C257.444 89.347 256.946 89.8753 256.332 89.8753L253.34 89.8753C250.882 89.8753 248.89 87.7619 248.89 85.155L248.89 67.4225C248.89 67.4007 248.89 67.379 248.891 67.3576C248.89 67.3361 248.89 67.3145 248.89 67.2927L248.89 65.5695C248.89 64.4977 249.233 63.4578 249.865 62.6208L249.925 62.5406L249.927 62.5386C249.936 62.5256 249.947 62.5115 249.959 62.4958L249.96 62.4949L249.964 62.4891L249.969 62.4829L249.969 62.4828L249.978 62.4705L249.979 62.4694L249.998 62.4435L250.001 62.4407C250.004 62.4366 250.007 62.4324 250.01 62.4281L250.011 62.4274L250.021 62.4135L250.023 62.4113L250.027 62.405L250.028 62.4041L250.033 62.3976L255.317 55.3913C255.528 55.1134 255.847 54.9521 256.183 54.9526Z" fill="#E64C3C"/>
<path d="M260.014 59.1932C258.785 59.1932 257.789 58.1365 257.789 56.8331C257.789 55.5297 258.785 54.473 260.014 54.473C261.242 54.473 262.238 55.5297 262.238 56.8331C262.238 58.1365 261.242 59.1932 260.014 59.1932Z" fill="#4A4F73"/>
<path d="M267.801 66.2738C267.187 66.2738 266.688 66.8022 266.688 67.4539L266.688 79.2547C266.688 79.9065 267.187 80.4349 267.801 80.4349C268.415 80.4349 268.914 79.9065 268.914 79.2547L268.914 67.4538C268.914 66.8021 268.415 66.2738 267.801 66.2738Z" fill="#FB7B76"/>
<path d="M267.802 82.7949C267.187 82.7949 266.689 83.3233 266.689 83.9751L266.689 86.3351C266.689 86.9869 267.187 87.5153 267.802 87.5153C268.416 87.5153 268.914 86.9869 268.914 86.3351L268.914 83.9751C268.914 83.3233 268.416 82.7949 267.802 82.7949Z" fill="#FB7B76"/>
<path d="M244.439 70.994L226.639 70.994C225.41 70.994 224.414 72.0506 224.414 73.3541C224.414 74.6576 225.41 75.7142 226.639 75.7142L244.439 75.7142C245.668 75.7142 246.664 74.6576 246.664 73.3541C246.664 72.0506 245.668 70.994 244.439 70.994Z" fill="#FB7B76"/>
<path d="M234.522 46.0415C237.684 48.0533 238.709 52.4026 236.812 55.7558L236.807 55.7653L236.805 55.7688L236.801 55.7748L236.799 55.7786L236.796 55.7844L236.794 55.788L236.79 55.7939L236.788 55.7978L236.785 55.8034L236.783 55.8072L236.779 55.8131L236.777 55.8166L236.773 55.8227L236.772 55.8261L236.768 55.8323L236.766 55.8356L236.762 55.8421L236.761 55.8447L236.756 55.8519L236.755 55.8542L236.751 55.8622L236.75 55.8635L236.744 55.8724L236.744 55.8729C236.676 55.9887 236.605 56.1017 236.531 56.212L236.53 56.2132L236.525 56.2209L236.524 56.2226L236.519 56.2295L236.518 56.232L236.514 56.2381L236.511 56.2413L236.508 56.2465L236.505 56.2504L236.502 56.2549L236.499 56.2596L236.497 56.2625L236.493 56.2687L236.492 56.2692C236.481 56.2861 236.469 56.3029 236.458 56.3195C236.118 56.8091 235.483 56.9445 234.991 56.6323C234.961 56.6131 234.931 56.5922 234.902 56.5697C234.408 56.1831 234.302 55.4443 234.666 54.9196C234.75 54.7989 234.829 54.6728 234.904 54.5415C236.165 52.3056 235.482 49.4085 233.378 48.0653C232.851 47.7301 232.68 47.0052 232.996 46.4463C233.312 45.8874 233.995 45.7061 234.522 46.0413C234.522 46.0414 234.522 46.0414 234.522 46.0415Z" fill="#DDDFF5"/>
</g>
<defs>
<filter id="filter0_d" x="35.8398" y="111.194" width="239.379" height="296.499" filterUnits="userSpaceOnUse" color-interpolation-filters="sRGB">
<feFlood flood-opacity="0" result="BackgroundImageFix"/>
<feColorMatrix in="SourceAlpha" type="matrix" values="0 0 0 0 0 0 0 0 0 0 0 0 0 0 0 0 0 0 127 0"/>
<feOffset dy="1"/>
<feGaussianBlur stdDeviation="2"/>
<feColorMatrix type="matrix" values="0 0 0 0 0 0 0 0 0 0 0 0 0 0 0 0 0 0 0.25 0"/>
<feBlend mode="normal" in2="BackgroundImageFix" result="effect1_dropShadow"/>
<feBlend mode="normal" in="SourceGraphic" in2="effect1_dropShadow" result="shape"/>
</filter>
<filter id="filter1_d" x="167.298" y="17.8243" width="158.877" height="137.629" filterUnits="userSpaceOnUse" color-interpolation-filters="sRGB">
<feFlood flood-opacity="0" result="BackgroundImageFix"/>
<feColorMatrix in="SourceAlpha" type="matrix" values="0 0 0 0 0 0 0 0 0 0 0 0 0 0 0 0 0 0 127 0"/>
<feOffset dy="1"/>
<feGaussianBlur stdDeviation="1"/>
<feColorMatrix type="matrix" values="0 0 0 0 0 0 0 0 0 0 0 0 0 0 0 0 0 0 0.25 0"/>
<feBlend mode="normal" in2="BackgroundImageFix" result="effect1_dropShadow"/>
<feBlend mode="normal" in="SourceGraphic" in2="effect1_dropShadow" result="shape"/>
</filter>
<filter id="filter2_d" x="218.188" y="39.6729" width="56.9506" height="55.2026" filterUnits="userSpaceOnUse" color-interpolation-filters="sRGB">
<feFlood flood-opacity="0" result="BackgroundImageFix"/>
<feColorMatrix in="SourceAlpha" type="matrix" values="0 0 0 0 0 0 0 0 0 0 0 0 0 0 0 0 0 0 127 0"/>
<feOffset dy="1"/>
<feGaussianBlur stdDeviation="2"/>
<feColorMatrix type="matrix" values="0 0 0 0 0 0 0 0 0 0 0 0 0 0 0 0 0 0 0.25 0"/>
<feBlend mode="normal" in2="BackgroundImageFix" result="effect1_dropShadow"/>
<feBlend mode="normal" in="SourceGraphic" in2="effect1_dropShadow" result="shape"/>
</filter>
<linearGradient id="paint0_linear" x1="194.652" y1="605.535" x2="194.757" y2="647.19" gradientUnits="userSpaceOnUse">
<stop offset="0.692708" stop-color="#2F2F3D"/>
<stop offset="1" stop-color="#0D0D24"/>
</linearGradient>
</defs>
</svg>
