<svg width="348" height="516" viewBox="0 0 348 516" fill="none" xmlns="http://www.w3.org/2000/svg">
<g filter="url(#filter0_d)">
<path fill-rule="evenodd" clip-rule="evenodd" d="M206.211 51.0595C206.211 59.2771 200.928 65.9385 194.41 65.9385C187.893 65.9385 182.609 59.2771 182.609 51.0595C182.609 42.8419 187.893 36.1804 194.41 36.1804C200.928 36.1804 206.211 42.8419 206.211 51.0595Z" fill="#19141E"/>
<path d="M178.285 110.003L177.792 92.9137C177.792 92.9137 198.511 94.5672 202.943 92.2595C202.943 92.2595 208.36 64.2855 201.899 48.7943L201.768 48.1911L158.045 43.0651L155.594 68.2125C154.121 63.8583 141.966 58.921 138.789 65.1562C131.903 78.667 156.523 87.7642 156.523 87.7642L154.023 110.208" fill="#9E6052"/>
<path opacity="0.398926" fill-rule="evenodd" clip-rule="evenodd" d="M177.792 92.9136L163.82 89.911L177.725 99.3252L177.792 92.9136Z" fill="black"/>
<path fill-rule="evenodd" clip-rule="evenodd" d="M188.96 67.8931L193.788 79.7232L188.002 79.7971L188.96 67.8931Z" fill="#551E11"/>
<path fill-rule="evenodd" clip-rule="evenodd" d="M183.812 68.3485C184.099 69.9416 183.044 71.4666 181.455 71.7544C179.865 72.0427 178.343 70.9846 178.056 69.392C177.768 67.7989 178.824 66.2739 180.413 65.9856C182.003 65.6978 183.524 66.7553 183.812 68.3485Z" fill="#382525"/>
<path fill-rule="evenodd" clip-rule="evenodd" d="M200.035 68.3485C200.323 69.9416 199.267 71.4666 197.678 71.7544C196.088 72.0427 194.567 70.9846 194.279 69.392C193.992 67.7989 195.047 66.2739 196.637 65.9856C198.226 65.6978 199.747 66.7553 200.035 68.3485Z" fill="#382525"/>
<path d="M158.841 72.5048C154.695 65.3934 148.697 63.2247 146.005 62.5886C144.931 59.478 144.113 55.8704 143.538 52.0336C141.995 41.7648 149.445 32.3959 155.461 29.7056C161.552 26.983 172.054 23.2102 187.426 28.3315C197.76 31.777 204.366 23.5282 210.448 27.0512C220.839 33.073 211.174 59.4367 184.824 52.7393C165.975 47.9484 165.491 49.1502 165.329 52.6326C164.807 63.8891 163.055 70.5112 158.841 72.5048Z" fill="#2F2F3D"/>
<path fill-rule="evenodd" clip-rule="evenodd" d="M180.923 80.2368C180.923 80.2368 182.78 83.6199 186.795 83.5397L180.923 80.2368Z" fill="white"/>
<path fill-rule="evenodd" clip-rule="evenodd" d="M179.692 80.914C179.692 80.9134 179.692 80.9129 180.923 80.2368C182.154 79.5607 182.154 79.5601 182.154 79.5596L182.153 79.5586L182.152 79.5568L182.151 79.5541C182.15 79.5533 182.15 79.5528 182.15 79.5525C182.149 79.5523 182.149 79.5522 182.149 79.5523L182.155 79.5617C182.162 79.5737 182.176 79.5967 182.196 79.629C182.238 79.6939 182.305 79.7954 182.4 79.9214C182.59 80.175 182.881 80.5169 183.272 80.8558C184.05 81.5284 185.194 82.1666 186.767 82.1352L186.823 84.9441C184.382 84.9928 182.589 83.9796 181.435 82.9807C180.86 82.4839 180.436 81.9851 180.152 81.6068C180.01 81.4169 179.901 81.2548 179.825 81.1349C179.787 81.0749 179.756 81.0253 179.734 80.9878C179.723 80.969 179.714 80.9532 179.707 80.9407L179.698 80.9243L179.694 80.9179L179.693 80.9153L179.692 80.914Z" fill="#252535"/>
<path fill-rule="evenodd" clip-rule="evenodd" d="M180.866 63.1885C177.95 63.1885 175.58 65.5591 175.58 68.4899C175.58 71.4206 177.95 73.7909 180.866 73.7909C183.783 73.7909 186.153 71.4205 186.153 68.4899C186.153 65.5592 183.783 63.1885 180.866 63.1885ZM172.771 68.4899C172.771 64.0135 176.393 60.379 180.866 60.379C185.341 60.379 188.963 64.0134 188.963 68.4899C188.963 72.9666 185.341 76.6003 180.866 76.6003C176.393 76.6003 172.771 72.9665 172.771 68.4899Z" fill="#252535"/>
<path fill-rule="evenodd" clip-rule="evenodd" d="M197.715 63.1885C194.798 63.1885 192.428 65.5592 192.428 68.4899C192.428 71.4205 194.798 73.7909 197.715 73.7909C200.631 73.7909 203.001 71.4206 203.001 68.4899C203.001 65.5591 200.631 63.1885 197.715 63.1885ZM189.619 68.4899C189.619 64.0134 193.241 60.379 197.715 60.379C202.189 60.379 205.811 64.0135 205.811 68.4899C205.811 72.9665 202.189 76.6003 197.715 76.6003C193.241 76.6003 189.619 72.9666 189.619 68.4899Z" fill="#252535"/>
<path fill-rule="evenodd" clip-rule="evenodd" d="M187.585 65.9913H190.478V71.6102H187.585V65.9913Z" fill="#252535"/>
<path fill-rule="evenodd" clip-rule="evenodd" d="M157.646 65.6805H174.175V71.2994H157.646V65.6805Z" fill="#252535"/>
<path fill-rule="evenodd" clip-rule="evenodd" d="M193.138 490.005L193.3 475.931L175.301 466.79L172.689 507.025H235.047C224.437 494.975 193.138 490.005 193.138 490.005ZM113.259 490.554L113.422 474.745L101.688 484.378L92.2452 489.679L89.1288 507.025H131.809C126.442 492.289 113.259 490.554 113.259 490.554Z" fill="url(#paint0_linear)"/>
<path fill-rule="evenodd" clip-rule="evenodd" d="M113.422 474.746L95.4233 469.292L92.2448 489.679L113.26 490.554L113.422 474.746ZM193.3 475.931L175.301 470.478L173.85 489.131L193.138 490.005L193.3 475.931Z" fill="#EACFE2"/>
<path d="M195.878 471.316L195.463 484.378H171.722L172.138 471.277C169.479 470.201 167.578 467.614 167.513 464.558L163.692 268.907L122.399 466.433C121.817 469.212 119.773 471.369 117.177 472.165L115.625 484.378H90.732L92.8744 470.894C90.8015 469.274 89.6002 466.609 90.0135 463.763L128.03 201.967L162.384 201.967L162.382 201.867H203.992L201.498 464.192C201.464 467.641 199.083 470.527 195.878 471.316Z" fill="#2F2F3D"/>
<path opacity="0.197824" fill-rule="evenodd" clip-rule="evenodd" d="M163.481 272.007L170.766 239.444L165.285 338.167L163.481 272.007Z" fill="black"/>
<path d="M136.919 202.214L140.906 202.87L97.4216 469.658L93.4224 468.985L136.919 202.214Z" fill="#EFEFEF"/>
<path fill-rule="evenodd" clip-rule="evenodd" d="M265.276 118.112L264.991 113.136C264.991 113.136 264.997 109.674 265.442 105.937C265.553 104.999 265.798 104.019 266.06 102.972L266.06 102.971C266.842 99.8448 267.772 96.1247 265.738 91.1823C263.023 84.5903 269.514 89.1416 270.951 92.2771C271.507 93.489 271.669 95.3208 271.829 97.1377C272.015 99.2393 272.198 101.321 272.988 102.4C274.231 101.718 275.058 100.829 275.058 100.829L289.049 82.5898C289.5 81.9764 290.333 81.793 291 82.1541L291.753 82.5668C292.546 83.0025 292.797 84.0228 292.289 84.768C291.319 86.1991 289.625 88.6128 287.855 91.136L287.853 91.1393L287.853 91.1397C284.639 95.7202 281.174 100.66 281.321 100.738L281.692 101.191L298.124 83.7763C298.637 83.1974 299.499 83.0942 300.132 83.5356L301.118 84.2234C301.837 84.7221 301.991 85.7195 301.455 86.4074C299.703 88.6815 295.365 93.6065 291.754 97.7067L291.754 97.707C288.63 101.255 286.049 104.185 286.158 104.246L286.648 104.722L301.945 91.1421C302.487 90.5345 303.411 90.4657 304.039 90.9759L304.786 91.5892C305.442 92.1223 305.539 93.0911 305.003 93.7445L290.555 107.399L290.971 108.058L303.514 99.2015C304.09 98.6857 304.957 98.6857 305.539 99.1958L305.887 99.5111C306.503 100.061 306.571 101.007 306.035 101.643C305.181 102.659 303.491 103.993 301.477 105.583C299.159 107.413 296.41 109.582 294.012 111.996C292.69 113.326 291.625 114.629 290.546 115.95C288.782 118.107 286.982 120.31 283.967 122.749C282.168 124.211 280.54 125.06 278.991 125.869C278.772 125.984 278.554 126.097 278.338 126.211L265.276 118.112ZM152.508 106.696C152.508 106.696 162.175 106.677 169.151 106.654C176.126 106.63 184.899 109.594 184.899 109.594C184.899 109.594 189.463 119.955 173.607 119.017C157.751 118.078 152.508 106.696 152.508 106.696ZM99.639 148.626C99.639 148.626 84.1654 172.094 84.5161 185.146C84.9302 200.534 133.609 238.346 133.609 238.346L146.224 227.963L115.579 184.793L126.724 160.806L99.639 148.626Z" fill="#9E6052"/>
<path d="M142.559 209.145L150.094 219.362L127.397 239.351C127.397 239.351 85.7441 208.507 84.4579 184.323C83.6388 168.919 96.9769 146.931 96.9769 146.931C96.9769 146.931 113.718 119.898 133.071 110.775C137.043 108.902 146.672 107.341 152.509 106.696C154.298 106.499 153.228 107.203 153.842 108.395C154.484 109.641 156.438 111.486 157.789 112.865C160.601 115.736 166.144 117.91 169.122 118.355C171.391 118.694 175.776 119.22 177.886 118.934C179.995 118.648 182.288 117.686 182.901 117.114C183.514 116.543 184.426 115.827 184.899 114.726C185.372 113.624 185.348 113.94 185.348 112.923C185.348 111.907 185.296 112.057 185.198 111.574C185.099 111.09 185.099 110.799 185.041 110.549C184.784 109.443 184.899 109.594 184.899 109.594C196.323 113.08 202.11 114.37 206.272 119.442L238.078 141.993L259.84 113.303L287.919 132.351C287.919 132.351 263.058 179.149 245.039 184.323C230.525 188.49 215.822 175.529 210.652 170.33L216.794 201.834C217.779 207.273 213.065 209.332 208.864 209.139L142.559 209.145Z" fill="#FAFAFA"/>
<path opacity="0.201242" fill-rule="evenodd" clip-rule="evenodd" d="M210.555 170.349L206.754 155.171L217.018 175.914L210.555 170.349Z" fill="black"/>
<path opacity="0.200591" fill-rule="evenodd" clip-rule="evenodd" d="M126.251 180.024L146.367 149.203L140.485 145.364L117.778 180.155L136.86 207.497L142.62 203.478L126.251 180.024Z" fill="#111111"/>
</g>
<defs>
<filter id="filter0_d" x="0" y="0" width="347.941" height="515.869" filterUnits="userSpaceOnUse" color-interpolation-filters="sRGB">
<feFlood flood-opacity="0" result="BackgroundImageFix"/>
<feColorMatrix in="SourceAlpha" type="matrix" values="0 0 0 0 0 0 0 0 0 0 0 0 0 0 0 0 0 0 127 0"/>
<feOffset dy="4"/>
<feGaussianBlur stdDeviation="2"/>
<feColorMatrix type="matrix" values="0 0 0 0 0 0 0 0 0 0 0 0 0 0 0 0 0 0 0.25 0"/>
<feBlend mode="normal" in2="BackgroundImageFix" result="effect1_dropShadow"/>
<feBlend mode="normal" in="SourceGraphic" in2="effect1_dropShadow" result="shape"/>
</filter>
<linearGradient id="paint0_linear" x1="162.088" y1="466.79" x2="162" y2="507" gradientUnits="userSpaceOnUse">
<stop offset="0.692708" stop-color="#2F2F3D"/>
<stop offset="1" stop-color="#0D0D24"/>
</linearGradient>
</defs>
</svg>
