<svg width="19" height="19" viewBox="0 0 19 19" fill="none" xmlns="http://www.w3.org/2000/svg">
<path d="M14.2334 12.0752C13.6217 11.4865 12.8581 11.4865 12.2504 12.0752C11.7868 12.5235 11.3232 12.9717 10.8674 13.4275C10.7427 13.5528 10.6375 13.5794 10.4856 13.4959C10.1856 13.3363 9.86614 13.2072 9.57785 13.0324C8.23378 12.2082 7.10789 11.1484 6.11055 9.95571C5.61578 9.36315 5.17555 8.72882 4.86778 8.01471C4.80545 7.87037 4.81714 7.77541 4.93791 7.65766C5.40151 7.22083 5.85343 6.77262 6.30924 6.3244C6.94426 5.70146 6.94426 4.97216 6.30535 4.34541C5.94303 3.98836 5.58072 3.6389 5.21841 3.28185C4.84441 2.9172 4.4743 2.54875 4.09641 2.1879C3.48476 1.60674 2.72117 1.60674 2.11342 2.1917C1.64592 2.63991 1.1979 3.09953 0.72261 3.54014C0.282381 3.94658 0.0603178 4.44417 0.0135677 5.02534C-0.0604532 5.97115 0.177193 6.86378 0.512235 7.73362C1.1979 9.53408 2.24199 11.1332 3.50813 12.5994C5.21841 14.5822 7.25983 16.151 9.64797 17.2829C10.7232 17.7919 11.8374 18.1831 13.049 18.2477C13.8827 18.2933 14.6074 18.0882 15.1879 17.4538C15.5852 17.0208 16.0333 16.6258 16.454 16.2117C17.0773 15.5964 17.0812 14.8519 16.4618 14.2442C15.7216 13.5186 14.9775 12.7969 14.2334 12.0752Z" fill="#0F144C"/>
<path d="M13.4897 9.0479L14.9273 8.8086C14.7013 7.52093 14.078 6.3548 13.1313 5.42798C12.13 4.45178 10.8639 3.83644 9.46918 3.64651L9.2666 5.05574C10.3457 5.20388 11.3275 5.67868 12.1028 6.43457C12.8352 7.14868 13.3144 8.05271 13.4897 9.0479Z" fill="#0F144C"/>
<path d="M15.7371 2.95519C14.0775 1.33705 11.9776 0.315271 9.65961 0L9.45703 1.40922C11.4595 1.68271 13.275 2.56775 14.7086 3.96177C16.0683 5.28743 16.9604 6.96254 17.2838 8.80479L18.7213 8.56549C18.3434 6.43076 17.311 4.49356 15.7371 2.95519Z" fill="#0F144C"/>
</svg>
