<svg width="108" height="96" viewBox="0 0 108 96" fill="none" xmlns="http://www.w3.org/2000/svg">
<path d="M9 61.5H2.5V93.5H9V87.5C24.6 82.7 16.5 66.5 9 66.5V61.5Z" fill="#656262"/>
<path d="M53.5 73.5H17.5V81.5H53.5V73.5Z" fill="#C4C4C4"/>
<path d="M55 62C51 63.6 48.6667 61.3333 48 60V85.5C50 91.5 53.5 88 55 85.5V62Z" fill="#C4C4C4"/>
<path d="M61.0002 53L46.5002 47C43.0002 55 43.0002 57.5 50.0002 60.5C58.5 64.1428 59.6668 56.5 61.0002 53Z" fill="#C4C4C4"/>
<path d="M59.5 43L28.5 31L26 39L79.5 58.5L84.5 44.5L66.5 37.5L59.5 43Z" fill="#656262"/>
<path d="M81 55.5L85 44C86 43.5 88.9 42.1 92.5 40.5C95.7 53.7 86.1667 56 81 55.5Z" fill="#C1F968"/>
<path d="M26.5 2.5L18 26L59.5 42L66.5 37.5L85 42L103.5 31.5L26.5 2.5Z" fill="#C4C4C4" stroke="black"/>
<g filter="url(#filter0_i)">
<path d="M58.2275 25.8127L59.5759 21.9961L63.2499 23.3977L61.9007 27.2143L58.2275 25.8127Z" fill="#C1F968"/>
</g>
<g filter="url(#filter1_i)">
<path d="M65.5752 28.6155L66.9236 24.7988L70.5975 26.2004L69.2483 30.0162L65.5752 28.6155Z" fill="#C1F968"/>
</g>
<g filter="url(#filter2_i)">
<path d="M72.9219 31.4197L74.2711 27.603L77.9442 29.0046L76.595 32.8213L72.9219 31.4197Z" fill="#C1F968"/>
</g>
<path d="M106.345 30.6179L27.1202 0.126486C26.1068 -0.262515 24.981 0.275774 24.6074 1.32932C24.6066 1.33017 24.6066 1.33103 24.6057 1.33188L15.8356 26.1316C15.4628 27.1851 15.9826 28.3538 16.9967 28.7411H16.9984L26.1816 32.2438L24.1582 37.9705C23.7862 39.0241 24.306 40.1911 25.3202 40.5784L43.6899 47.5847L42.3399 51.4022C41.113 54.8213 42.2577 58.6703 45.1286 60.7732V71.1465H18.8C17.5255 68.1198 14.9175 65.9223 11.8028 65.2518V60.983C11.8028 59.8604 10.9274 58.9502 9.84591 58.9502H1.95686C0.876195 58.9502 0 59.8604 0 60.983V93.5064C0 94.6299 0.876195 95.5393 1.95686 95.5393H9.84591C10.9274 95.5393 11.8028 94.6299 11.8028 93.5064V89.2385C14.9175 88.5671 17.5255 86.3705 18.8 83.3429H45.1286V85.3758C45.1286 88.7437 47.7563 91.4744 50.9983 91.4744C54.2403 91.4744 56.8689 88.7437 56.8689 85.3758V62.8572C58.6476 61.941 60.0214 60.3518 60.7063 58.4153L62.0563 54.5978L78.5882 60.8994C78.8042 60.9822 79.0317 61.024 79.2616 61.024C80.0819 61.024 80.8161 60.4925 81.0994 59.6923L81.8327 57.6168C88.2001 58.8614 94.3326 54.5082 95.5299 47.8943C95.9725 45.4503 95.6851 42.9243 94.7063 40.6551L106.568 34.3279C107.53 33.8161 107.91 32.591 107.417 31.5921C107.194 31.1383 106.815 30.7885 106.355 30.6119L106.345 30.6179ZM49.0415 62.6252L50.6617 63.2351C51.3991 63.5098 52.1726 63.6676 52.9552 63.7026V71.1465H49.0415V62.6252ZM7.88986 91.4744H3.91373V63.0159H7.88986V91.4744ZM15.7165 79.278C15.7132 81.8611 14.1464 84.1636 11.8028 85.0286V69.4617C14.1464 70.3259 15.7132 72.6283 15.7165 75.2123V79.278ZM19.691 75.2123H52.9552V79.278H19.691V75.2123ZM50.9983 87.4087C49.9177 87.4087 49.0415 86.4985 49.0415 85.3758V83.3429H52.9552V85.3758C52.9552 86.4985 52.079 87.4087 50.9983 87.4087ZM58.3832 53.1979L57.0332 57.0154C56.2875 59.1208 54.04 60.2008 52.0117 59.4279L48.3312 58.0271C46.3029 57.2534 45.2616 54.9177 46.0064 52.8097L47.3572 48.9939L57.2754 52.7765L58.3832 53.1979ZM78.1013 56.3892L28.5055 37.4698L29.8563 33.6523L59.2446 44.8634C59.9401 45.1261 60.7202 44.9615 61.2614 44.436L66.7526 39.0659L82.148 44.9401L78.1013 56.3892ZM91.3312 48.4446C90.0913 51.9174 86.7565 54.0876 83.2082 53.7302L86.2317 45.1739L91.1703 42.5319C91.943 44.4104 92.0005 46.5243 91.3312 48.4446ZM84.7265 41.4161C84.623 41.4255 84.5204 41.4442 84.4194 41.4724L66.9735 34.8176C66.278 34.5523 65.4979 34.7169 64.9575 35.2441L59.4597 40.6151L20.1837 25.6317L27.6022 4.64777L100.815 32.8256L84.7265 41.4161Z" fill="url(#paint0_linear)"/>
<defs>
<filter id="filter0_i" x="58.2275" y="21.9961" width="5.02231" height="5.21824" filterUnits="userSpaceOnUse" color-interpolation-filters="sRGB">
<feFlood flood-opacity="0" result="BackgroundImageFix"/>
<feBlend mode="normal" in="SourceGraphic" in2="BackgroundImageFix" result="shape"/>
<feColorMatrix in="SourceAlpha" type="matrix" values="0 0 0 0 0 0 0 0 0 0 0 0 0 0 0 0 0 0 127 0" result="hardAlpha"/>
<feOffset/>
<feGaussianBlur stdDeviation="0.5"/>
<feComposite in2="hardAlpha" operator="arithmetic" k2="-1" k3="1"/>
<feColorMatrix type="matrix" values="0 0 0 0 0 0 0 0 0 0 0 0 0 0 0 0 0 0 0.25 0"/>
<feBlend mode="normal" in2="shape" result="effect1_innerShadow"/>
</filter>
<filter id="filter1_i" x="65.5752" y="24.7988" width="5.02231" height="5.2174" filterUnits="userSpaceOnUse" color-interpolation-filters="sRGB">
<feFlood flood-opacity="0" result="BackgroundImageFix"/>
<feBlend mode="normal" in="SourceGraphic" in2="BackgroundImageFix" result="shape"/>
<feColorMatrix in="SourceAlpha" type="matrix" values="0 0 0 0 0 0 0 0 0 0 0 0 0 0 0 0 0 0 127 0" result="hardAlpha"/>
<feOffset/>
<feGaussianBlur stdDeviation="0.5"/>
<feComposite in2="hardAlpha" operator="arithmetic" k2="-1" k3="1"/>
<feColorMatrix type="matrix" values="0 0 0 0 0 0 0 0 0 0 0 0 0 0 0 0 0 0 0.25 0"/>
<feBlend mode="normal" in2="shape" result="effect1_innerShadow"/>
</filter>
<filter id="filter2_i" x="72.9219" y="27.603" width="5.02232" height="5.21824" filterUnits="userSpaceOnUse" color-interpolation-filters="sRGB">
<feFlood flood-opacity="0" result="BackgroundImageFix"/>
<feBlend mode="normal" in="SourceGraphic" in2="BackgroundImageFix" result="shape"/>
<feColorMatrix in="SourceAlpha" type="matrix" values="0 0 0 0 0 0 0 0 0 0 0 0 0 0 0 0 0 0 127 0" result="hardAlpha"/>
<feOffset/>
<feGaussianBlur stdDeviation="0.5"/>
<feComposite in2="hardAlpha" operator="arithmetic" k2="-1" k3="1"/>
<feColorMatrix type="matrix" values="0 0 0 0 0 0 0 0 0 0 0 0 0 0 0 0 0 0 0.25 0"/>
<feBlend mode="normal" in2="shape" result="effect1_innerShadow"/>
</filter>
<linearGradient id="paint0_linear" x1="53.8164" y1="-4.52234e-08" x2="53.143" y2="95.4752" gradientUnits="userSpaceOnUse">
<stop offset="0.692708" stop-color="#2F2F3D"/>
<stop offset="1" stop-color="#0D0D24"/>
</linearGradient>
</defs>
</svg>
