<svg width="115" height="78" viewBox="0 0 115 78" fill="none" xmlns="http://www.w3.org/2000/svg">
<g filter="url(#filter0_i)">
<path d="M13.7504 39.9021V54.6128H8.14637C4.64383 54.6128 1.84153 52.8283 1.8418 49.7092C1.84286 37.1001 1.8418 12.3021 1.8418 8.37928C1.8418 4.45643 6.04484 2.54171 8.14637 2.07471H27.7606H106.217C112.382 2.07471 113.456 6.27775 113.222 8.37928V46.2067C113.222 55.7336 105.518 54.6128 101.314 54.6128V39.9021H13.7504Z" fill="#D2D4D8"/>
</g>
<g filter="url(#filter1_d)">
<path fill-rule="evenodd" clip-rule="evenodd" d="M56.4834 11.5725C56.4834 10.5827 57.1318 9.78027 57.9316 9.78027H90.8793C91.6791 9.78027 92.3276 10.5827 92.3276 11.5725C92.3276 12.5623 91.6791 13.3647 90.8793 13.3647H57.9316C57.1318 13.3647 56.4834 12.5623 56.4834 11.5725Z" fill="#656262"/>
</g>
<g filter="url(#filter2_d)">
<path fill-rule="evenodd" clip-rule="evenodd" d="M96.6299 11.9308C96.6299 11.139 97.2005 10.4971 97.9043 10.4971H103.958C104.662 10.4971 105.232 11.139 105.232 11.9308C105.232 12.7227 104.662 13.3646 103.958 13.3646H97.9043C97.2005 13.3646 96.6299 12.7227 96.6299 11.9308Z" fill="#656262"/>
</g>
<g filter="url(#filter3_d)">
<path d="M106.786 0H27.3099C26.3787 0 25.6238 0.82764 25.6238 1.84906C25.6238 2.87048 26.3787 3.69812 27.3099 3.69812H106.786C109.378 3.69812 111.487 6.01068 111.487 8.85331V48.2238C111.487 51.0664 109.378 53.379 106.786 53.379H102.749V41.3312C102.749 40.3098 101.994 39.4822 101.063 39.4822H13.7963C12.8652 39.4822 12.1102 40.3098 12.1102 41.3312V53.379H8.07304C5.48095 53.379 3.3722 51.0664 3.3722 48.2238V8.85331C3.3722 6.01068 5.48095 3.69812 8.07304 3.69812H20.5655C21.4966 3.69812 22.2516 2.87048 22.2516 1.84906C22.2516 0.82764 21.4966 0 20.5655 0H8.07304C3.62152 0 0 3.97154 0 8.85331V48.2238C0 53.1056 3.62152 57.0771 8.07304 57.0771H25.6244C26.5556 57.0771 27.3105 56.2495 27.3105 55.228C27.3105 54.2069 26.5556 53.379 25.6244 53.379H15.4824V50.1286H82.4905C83.4217 50.1286 84.1766 49.3009 84.1766 48.2795C84.1766 47.2581 83.4217 46.4304 82.4905 46.4304H15.4824V43.18H99.3767V46.4304H89.2349C88.3037 46.4304 87.5488 47.2581 87.5488 48.2795C87.5488 49.3009 88.3037 50.1286 89.2349 50.1286H99.3767V53.379H32.3686C31.4374 53.379 30.6825 54.2069 30.6825 55.228C30.6825 56.2495 31.4374 57.0771 32.3686 57.0771H106.786C111.238 57.0771 114.859 53.1056 114.859 48.2238V8.85331C114.859 3.97178 111.238 0 106.786 0Z" fill="black"/>
</g>
<g opacity="0.7" filter="url(#filter4_d)">
<path d="M31.718 62.0249C30.7868 62.0249 30.0319 62.8525 30.0319 63.874C30.0319 63.9289 29.9777 69.4105 25.3002 73.0564C24.5413 73.6478 24.3632 74.8024 24.9028 75.6347C25.2317 76.1423 25.751 76.4128 26.2786 76.4128C26.6165 76.4128 26.9578 76.3016 27.2541 76.0706C33.3344 71.3311 33.4043 64.176 33.4043 63.8737C33.4041 62.8525 32.6492 62.0249 31.718 62.0249Z" fill="#A0D9F2"/>
</g>
<g opacity="0.6" filter="url(#filter5_d)">
<path d="M43.7896 62.0249C42.8584 62.0249 42.1035 62.8525 42.1035 63.874V74.5635C42.1035 75.585 42.8584 76.4126 43.7896 76.4126C44.7208 76.4126 45.4757 75.585 45.4757 74.5635V63.874C45.4757 62.8525 44.7208 62.0249 43.7896 62.0249Z" fill="#A0D9F2"/>
</g>
<g opacity="0.6" filter="url(#filter6_d)">
<path d="M57.9039 62.0249C56.9727 62.0249 56.2178 62.8525 56.2178 63.874V74.5635C56.2178 75.585 56.9727 76.4126 57.9039 76.4126C58.835 76.4126 59.59 75.585 59.59 74.5635V63.874C59.59 62.8525 58.835 62.0249 57.9039 62.0249Z" fill="#A0D9F2"/>
</g>
<g opacity="0.6" filter="url(#filter7_d)">
<path d="M89.5589 73.0564C84.9444 69.4596 84.8298 64.1116 84.8273 63.8656C84.8232 62.8481 84.0699 62.0249 83.1412 62.0249C82.21 62.0249 81.4551 62.8525 81.4551 63.874C81.4551 64.1762 81.525 71.3314 87.6053 76.0709C87.9016 76.3019 88.2429 76.4131 88.5808 76.4131C89.1082 76.4128 89.6277 76.1421 89.9566 75.635C90.496 74.8024 90.3179 73.6479 89.5589 73.0564Z" fill="#A0D9F2"/>
</g>
<g opacity="0.5" filter="url(#filter8_d)">
<path d="M71.0679 62.0249C70.1368 62.0249 69.3818 62.8525 69.3818 63.874V74.5635C69.3818 75.585 70.1368 76.4126 71.0679 76.4126C71.9991 76.4126 72.754 75.585 72.754 74.5635V63.874C72.754 62.8525 71.9991 62.0249 71.0679 62.0249Z" fill="#A0D9F2"/>
</g>
<circle cx="98.5" cy="33.5" r="2.5" fill="#C4FF4D"/>
<defs>
<filter id="filter0_i" x="1.8418" y="2.07471" width="111.41" height="52.5787" filterUnits="userSpaceOnUse" color-interpolation-filters="sRGB">
<feFlood flood-opacity="0" result="BackgroundImageFix"/>
<feBlend mode="normal" in="SourceGraphic" in2="BackgroundImageFix" result="shape"/>
<feColorMatrix in="SourceAlpha" type="matrix" values="0 0 0 0 0 0 0 0 0 0 0 0 0 0 0 0 0 0 127 0" result="hardAlpha"/>
<feOffset/>
<feGaussianBlur stdDeviation="0.5"/>
<feComposite in2="hardAlpha" operator="arithmetic" k2="-1" k3="1"/>
<feColorMatrix type="matrix" values="0 0 0 0 0 0 0 0 0 0 0 0 0 0 0 0 0 0 0.25 0"/>
<feBlend mode="normal" in2="shape" result="effect1_innerShadow"/>
</filter>
<filter id="filter1_d" x="56.4834" y="9.78027" width="35.8442" height="4.58442" filterUnits="userSpaceOnUse" color-interpolation-filters="sRGB">
<feFlood flood-opacity="0" result="BackgroundImageFix"/>
<feColorMatrix in="SourceAlpha" type="matrix" values="0 0 0 0 0 0 0 0 0 0 0 0 0 0 0 0 0 0 127 0"/>
<feOffset dy="1"/>
<feColorMatrix type="matrix" values="0 0 0 0 0.958333 0 0 0 0 0.683611 0 0 0 0 0.271528 0 0 0 0.5 0"/>
<feBlend mode="normal" in2="BackgroundImageFix" result="effect1_dropShadow"/>
<feBlend mode="normal" in="SourceGraphic" in2="effect1_dropShadow" result="shape"/>
</filter>
<filter id="filter2_d" x="96.6299" y="10.4971" width="8.6026" height="3.86753" filterUnits="userSpaceOnUse" color-interpolation-filters="sRGB">
<feFlood flood-opacity="0" result="BackgroundImageFix"/>
<feColorMatrix in="SourceAlpha" type="matrix" values="0 0 0 0 0 0 0 0 0 0 0 0 0 0 0 0 0 0 127 0"/>
<feOffset dy="1"/>
<feColorMatrix type="matrix" values="0 0 0 0 0.958333 0 0 0 0 0.683611 0 0 0 0 0.271528 0 0 0 0.5 0"/>
<feBlend mode="normal" in2="BackgroundImageFix" result="effect1_dropShadow"/>
<feBlend mode="normal" in="SourceGraphic" in2="effect1_dropShadow" result="shape"/>
</filter>
<filter id="filter3_d" x="0" y="0" width="114.859" height="58.0771" filterUnits="userSpaceOnUse" color-interpolation-filters="sRGB">
<feFlood flood-opacity="0" result="BackgroundImageFix"/>
<feColorMatrix in="SourceAlpha" type="matrix" values="0 0 0 0 0 0 0 0 0 0 0 0 0 0 0 0 0 0 127 0"/>
<feOffset dy="1"/>
<feColorMatrix type="matrix" values="0 0 0 0 0 0 0 0 0 0 0 0 0 0 0 0 0 0 0.1 0"/>
<feBlend mode="normal" in2="BackgroundImageFix" result="effect1_dropShadow"/>
<feBlend mode="normal" in="SourceGraphic" in2="effect1_dropShadow" result="shape"/>
</filter>
<filter id="filter4_d" x="24.5908" y="62.0249" width="8.81348" height="15.3879" filterUnits="userSpaceOnUse" color-interpolation-filters="sRGB">
<feFlood flood-opacity="0" result="BackgroundImageFix"/>
<feColorMatrix in="SourceAlpha" type="matrix" values="0 0 0 0 0 0 0 0 0 0 0 0 0 0 0 0 0 0 127 0"/>
<feOffset dy="1"/>
<feColorMatrix type="matrix" values="0 0 0 0 0 0 0 0 0 0 0 0 0 0 0 0 0 0 0.25 0"/>
<feBlend mode="normal" in2="BackgroundImageFix" result="effect1_dropShadow"/>
<feBlend mode="normal" in="SourceGraphic" in2="effect1_dropShadow" result="shape"/>
</filter>
<filter id="filter5_d" x="42.1035" y="62.0249" width="3.3722" height="15.3877" filterUnits="userSpaceOnUse" color-interpolation-filters="sRGB">
<feFlood flood-opacity="0" result="BackgroundImageFix"/>
<feColorMatrix in="SourceAlpha" type="matrix" values="0 0 0 0 0 0 0 0 0 0 0 0 0 0 0 0 0 0 127 0"/>
<feOffset dy="1"/>
<feColorMatrix type="matrix" values="0 0 0 0 0 0 0 0 0 0 0 0 0 0 0 0 0 0 0.25 0"/>
<feBlend mode="normal" in2="BackgroundImageFix" result="effect1_dropShadow"/>
<feBlend mode="normal" in="SourceGraphic" in2="effect1_dropShadow" result="shape"/>
</filter>
<filter id="filter6_d" x="56.2178" y="62.0249" width="3.3722" height="15.3877" filterUnits="userSpaceOnUse" color-interpolation-filters="sRGB">
<feFlood flood-opacity="0" result="BackgroundImageFix"/>
<feColorMatrix in="SourceAlpha" type="matrix" values="0 0 0 0 0 0 0 0 0 0 0 0 0 0 0 0 0 0 127 0"/>
<feOffset dy="1"/>
<feColorMatrix type="matrix" values="0 0 0 0 0 0 0 0 0 0 0 0 0 0 0 0 0 0 0.25 0"/>
<feBlend mode="normal" in2="BackgroundImageFix" result="effect1_dropShadow"/>
<feBlend mode="normal" in="SourceGraphic" in2="effect1_dropShadow" result="shape"/>
</filter>
<filter id="filter7_d" x="81.4551" y="62.0249" width="8.81331" height="15.3882" filterUnits="userSpaceOnUse" color-interpolation-filters="sRGB">
<feFlood flood-opacity="0" result="BackgroundImageFix"/>
<feColorMatrix in="SourceAlpha" type="matrix" values="0 0 0 0 0 0 0 0 0 0 0 0 0 0 0 0 0 0 127 0"/>
<feOffset dy="1"/>
<feColorMatrix type="matrix" values="0 0 0 0 0 0 0 0 0 0 0 0 0 0 0 0 0 0 0.25 0"/>
<feBlend mode="normal" in2="BackgroundImageFix" result="effect1_dropShadow"/>
<feBlend mode="normal" in="SourceGraphic" in2="effect1_dropShadow" result="shape"/>
</filter>
<filter id="filter8_d" x="69.3818" y="62.0249" width="3.37219" height="15.3877" filterUnits="userSpaceOnUse" color-interpolation-filters="sRGB">
<feFlood flood-opacity="0" result="BackgroundImageFix"/>
<feColorMatrix in="SourceAlpha" type="matrix" values="0 0 0 0 0 0 0 0 0 0 0 0 0 0 0 0 0 0 127 0"/>
<feOffset dy="1"/>
<feColorMatrix type="matrix" values="0 0 0 0 0 0 0 0 0 0 0 0 0 0 0 0 0 0 0.25 0"/>
<feBlend mode="normal" in2="BackgroundImageFix" result="effect1_dropShadow"/>
<feBlend mode="normal" in="SourceGraphic" in2="effect1_dropShadow" result="shape"/>
</filter>
</defs>
</svg>
