<svg width="92" height="82" viewBox="0 0 92 82" fill="none" xmlns="http://www.w3.org/2000/svg">
<path d="M24.2401 56.9108V75.546H16.4219V56.9077" fill="#C97523"/>
<path d="M19.9091 56.9108V75.546H16.4219V56.9077" fill="#A85613"/>
<path d="M20.3317 61.0001C30.8071 61.0001 39.2992 47.65 39.2992 31.1817C39.2992 14.7134 30.8071 1.36328 20.3317 1.36328C9.85628 1.36328 1.36426 14.7134 1.36426 31.1817C1.36426 47.65 9.85628 61.0001 20.3317 61.0001Z" fill="#8CC928"/>
<path d="M20.3317 61.0004C9.85521 61.0004 1.36426 47.6495 1.36426 31.182C1.36426 14.7146 9.85521 1.36377 20.3317 1.36377C15.6934 1.36377 11.9353 14.7147 11.9353 31.1822C11.9353 47.6497 15.6934 61.0004 20.3317 61.0004Z" fill="#82B20B"/>
<path d="M83.0859 42.0772V80.0423H33.2783V42.0772L58.3226 17.7827L83.0859 42.0772Z" fill="#E9EAEF"/>
<path d="M70.8994 28.673V21.6602H83.3514V40.5315" fill="#9EB1B7"/>
<path d="M90.6376 72.0869H60.5684V80.0424H90.6376V72.0869Z" fill="#85C10D"/>
<path d="M35.4244 72.0869H1.36426V80.0424H35.4244V72.0869Z" fill="#85C10D"/>
<path d="M83.0859 43.5675V50.6638L58.1821 26.8859L33.2783 50.6638V43.5675L56.2045 21.7328L58.1821 19.8955L60.1585 21.7328L83.0859 43.5675Z" fill="#D2D4D8"/>
<path d="M58.1816 22.9369L29.8269 50.008L25.8623 46.6797L56.2045 17.7827L58.1816 15.9463L60.1585 17.7827L90.5009 46.6797L86.5363 50.008L58.1816 22.9369Z" fill="#EA4756"/>
<path d="M55.7967 51.5981H39.3711V80.042H55.7967V51.5981Z" fill="#C97523"/>
<path d="M79.273 51.5981H60.5674V68.0237H79.273V51.5981Z" fill="#A0D9F2"/>
<path d="M79.273 51.5981H60.5674V56.5895H79.273V51.5981Z" fill="#C97523"/>
<path d="M58.1824 43.4741C60.7058 43.4741 62.7515 41.4285 62.7515 38.905C62.7515 36.3816 60.7058 34.3359 58.1824 34.3359C55.6589 34.3359 53.6133 36.3816 53.6133 38.905C53.6133 41.4285 55.6589 43.4741 58.1824 43.4741Z" fill="#413740"/>
<path d="M60.5668 69.3871H79.2721C80.0253 69.3871 80.6357 68.7766 80.6357 68.0235V51.5975C80.6357 50.8445 80.0253 50.2339 79.2721 50.2339H60.5668C59.8135 50.2339 59.2031 50.8445 59.2031 51.5975V68.0235C59.2031 68.7767 59.8137 69.3871 60.5668 69.3871ZM61.9304 66.6598V57.9525H77.9084V66.6598H61.9304ZM77.9084 52.9612V55.2254H61.9304V52.9612H77.9084Z" fill="black"/>
<path d="M90.6364 70.7232H84.4499V59.0573C84.4499 58.3043 83.8393 57.6937 83.0862 57.6937C82.3332 57.6937 81.7226 58.3043 81.7226 59.0573V70.7232H60.5667C59.8137 70.7232 59.2031 71.3338 59.2031 72.0868V78.6785H57.1615V51.5974C57.1615 50.8444 56.5509 50.2338 55.7978 50.2338H39.3719C38.6188 50.2338 38.0082 50.8444 38.0082 51.5974V78.6785H36.7878V72.0868C36.7878 71.3338 36.1772 70.7232 35.4241 70.7232H34.642V47.2961L58.1817 24.8222L81.7224 47.2972V52.6934C81.7224 53.4464 82.333 54.057 83.0861 54.057C83.8391 54.057 84.4497 53.4464 84.4497 52.6934V49.901L85.5949 50.9942C86.0976 51.4742 86.8809 51.4991 87.4131 51.0524L91.3481 47.7493C91.5307 47.596 91.6827 47.4053 91.7693 47.1832C91.9783 46.6478 91.834 46.0658 91.4417 45.6922L84.7148 39.2858V21.6601C84.7148 20.907 84.1042 20.2964 83.3511 20.2964H70.8993C70.1462 20.2964 69.5356 20.907 69.5356 21.6601V24.8298L61.0871 16.7837L59.1102 14.9473C58.5871 14.4612 57.7778 14.4612 57.254 14.9473L55.2647 16.7956L40.6572 30.7072C40.5546 20.3394 37.0999 10.7185 31.5107 5.08875C30.9567 4.53082 30.0425 4.56676 29.5241 5.15829C29.0503 5.69861 29.0801 6.5108 29.5866 7.02075C34.7623 12.2277 37.9351 21.3336 37.9351 31.1821C37.9351 31.9087 37.9132 32.6348 37.879 33.3529L24.9223 45.6924C24.5302 46.0659 24.3859 46.6478 24.5949 47.1834C24.6815 47.4055 24.8335 47.5962 25.0159 47.7494L28.9507 51.0526C29.205 51.2661 29.5164 51.3719 29.8272 51.3719C30.1672 51.3719 30.5063 51.2454 30.769 50.9946L31.9152 49.9005V52.5453C28.6887 57.1218 24.5881 59.6372 20.3313 59.6372C15.7482 59.6372 11.3938 56.7597 8.07012 51.5349C4.62498 46.1186 2.72748 38.8907 2.72748 31.1822C2.72748 23.4738 4.62498 16.2459 8.0703 10.8298C11.3936 5.60499 15.7482 2.72748 20.3315 2.72748C21.9233 2.72748 23.4936 3.07463 25.0143 3.76068C25.6504 4.04764 26.4006 3.79195 26.7454 3.18514V3.18496C27.1423 2.48616 26.852 1.59652 26.1194 1.2668C24.251 0.4255 22.31 0 20.3315 0C14.7825 0 9.61077 3.32601 5.76923 9.36567C2.0488 15.2136 0 22.9615 0 31.1819C0 39.4022 2.0488 47.15 5.76887 52.9983C8.35816 57.0691 11.5523 59.9049 15.0584 61.3225V70.723H10.9092V68.694C10.9092 67.9472 10.3336 67.2962 9.58741 67.2737C8.81529 67.2506 8.18189 67.8698 8.18189 68.6368V70.7232H6.52894V68.6942C6.52894 67.9474 5.95341 67.2964 5.20716 67.2739C4.43505 67.2507 3.80165 67.8699 3.80165 68.637V70.7234H1.36365C0.610578 70.7234 0 71.334 0 72.087V80.0425C0 80.7956 0.610578 81.4062 1.36365 81.4062H35.4243C35.4256 81.4062 35.4266 81.406 35.4277 81.406H39.3719H55.7978H60.5631C60.5644 81.406 60.5655 81.4062 60.5665 81.4062H90.6362C91.3892 81.4062 91.9998 80.7956 91.9998 80.0425V72.087C92 71.3336 91.3894 70.7232 90.6364 70.7232ZM72.2628 23.0235H81.9875V36.6884L72.2628 27.4271V23.0235ZM29.7688 48.1783L27.9073 46.6156L57.1331 18.782L58.1821 17.8076L59.2187 18.7703L88.4571 46.6156L86.5954 48.1785L59.1237 21.9504C58.8602 21.6989 58.5213 21.5731 58.1821 21.5731C57.8432 21.5731 57.504 21.6989 57.2405 21.9504L29.7688 48.1783ZM31.9148 56.8571V70.7232H30.123V68.6368C30.123 67.8838 29.5126 67.2732 28.7593 67.2732C28.0061 67.2732 27.3957 67.8838 27.3957 68.6368V70.7232H25.6039V61.3178C27.8607 60.4021 29.9925 58.8971 31.9148 56.8571ZM17.7856 62.1268C18.6228 62.2838 19.4724 62.3638 20.3311 62.3638C21.1888 62.3638 22.0383 62.282 22.8766 62.1235V70.723H17.7856V62.1268ZM2.7273 73.4505H16.4062C16.4114 73.4505 16.4168 73.4512 16.422 73.4512H24.2402C24.2454 73.4512 24.2508 73.4505 24.256 73.4505H34.0608V78.6785H33.2787V78.6787H2.7273V73.4505ZM40.7357 78.6785V52.9611H54.4343V78.6785H40.7357ZM89.2727 78.6787H83.0862V78.6785H61.9304V73.4505H89.2727V78.6787Z" fill="black"/>
<path d="M52.5614 64.3652H50.1771C49.4239 64.3652 48.8135 64.9758 48.8135 65.7289C48.8135 66.482 49.4239 67.0925 50.1771 67.0925H52.5614C53.3146 67.0925 53.925 66.482 53.925 65.7289C53.925 64.9758 53.3146 64.3652 52.5614 64.3652Z" fill="black"/>
<path d="M64.1161 38.9056C64.1161 35.6341 61.4542 32.9722 58.1825 32.9722C54.9109 32.9722 52.249 35.6341 52.249 38.9056C52.249 42.1774 54.9109 44.8391 58.1825 44.8391C61.4542 44.8391 64.1161 42.1774 64.1161 38.9056ZM58.1823 42.1118C56.4144 42.1118 54.9761 40.6734 54.9761 38.9056C54.9761 37.1379 56.4144 35.6995 58.1823 35.6995C59.9502 35.6995 61.3886 37.1379 61.3886 38.9056C61.3888 40.6736 59.9504 42.1118 58.1823 42.1118Z" fill="black"/>
</svg>
