<svg width="96" height="113" viewBox="0 0 96 113" fill="none" xmlns="http://www.w3.org/2000/svg">
<path d="M24.3594 59.8687C33.6939 71.4562 36.4834 86.6916 36.5907 93.0218H59.4439C59.4439 89.803 59.8415 77.5718 70.0658 63.0874C85.5158 41.1999 67.8126 19.6343 46.247 19.3124C24.6813 18.9905 14.7031 46.028 24.3594 59.8687Z" fill="#FFE86D"/>
<path d="M29.6466 49.0913C29.499 48.1192 29.4286 47.1206 29.4379 46.1235C29.4475 45.0976 28.608 44.2585 27.5629 44.2491C26.5248 44.2402 25.6629 45.0637 25.6533 46.0895C25.6422 47.2808 25.7262 48.4751 25.9031 49.6394C26.0432 50.5612 26.8506 51.2232 27.7726 51.2232C27.8654 51.2232 27.9596 51.2165 28.0542 51.2027C29.0877 51.0511 29.8008 50.106 29.6466 49.0913Z" fill="white"/>
<path d="M40.7821 77.3059C40.9779 77.3059 41.1772 77.2757 41.3735 77.2125C42.3664 76.8921 42.9066 75.8422 42.5801 74.8678C40.4828 68.6075 37.357 62.7749 33.2895 57.5325C32.6174 56.6659 32.0216 55.7428 31.5192 54.7885C31.0393 53.8771 29.8975 53.5205 28.969 53.9915C28.0407 54.4626 27.6771 55.5833 28.157 56.4947C28.7601 57.6395 29.4736 58.7458 30.2786 59.7833C34.0902 64.6961 37.0194 70.1616 38.9847 76.0282C39.2467 76.8101 39.9867 77.3059 40.7821 77.3059Z" fill="white"/>
<path d="M68.2437 52.6579C67.2839 52.252 66.1704 52.6869 65.7571 53.629C65.1575 54.9957 64.3816 56.2991 63.4511 57.5033C62.8195 58.3206 62.9827 59.4859 63.8154 60.1058C64.1573 60.3604 64.559 60.4833 64.9574 60.4833C65.5295 60.4833 66.0947 60.2299 66.4668 59.7479C67.5819 58.3048 68.5124 56.7405 69.2331 55.0987C69.6467 54.1566 69.2038 53.0636 68.2437 52.6579Z" fill="white"/>
<path d="M48.3602 27.7233C58.7943 27.7233 67.283 36.0557 67.283 46.2973C67.283 46.8796 67.2557 47.4663 67.202 48.0412C67.1066 49.0628 67.8727 49.9668 68.9135 50.0607C68.9723 50.0659 69.0306 50.0686 69.0886 50.0686C70.0558 50.0686 70.8809 49.3446 70.971 48.3807C71.0351 47.6934 71.0679 46.9925 71.0679 46.2973C71.0679 34.0072 60.8813 24.0083 48.3602 24.0083C47.3151 24.0083 46.4678 24.84 46.4678 25.8658C46.4678 26.8917 47.3151 27.7233 48.3602 27.7233Z" fill="white"/>
<path d="M48.3602 14.1172C49.4053 14.1172 50.2526 13.2855 50.2526 12.2596V1.85752C50.2526 0.831675 49.4053 0 48.3602 0C47.3151 0 46.4678 0.831675 46.4678 1.85752V12.2596C46.4678 13.2855 47.3151 14.1172 48.3602 14.1172Z" fill="#FFE86D"/>
<path d="M29.2141 17.7874C29.5649 18.3835 30.2007 18.7166 30.8547 18.7166C31.1757 18.7166 31.5012 18.6364 31.7992 18.4675C32.7043 17.9546 33.0146 16.8185 32.4921 15.9301L27.1958 6.92486C26.673 6.03622 25.5158 5.73184 24.6107 6.24476C23.7056 6.75768 23.3953 7.89374 23.9178 8.78213L29.2141 17.7874Z" fill="#FFE86D"/>
<path d="M88.8034 67.3946L79.6289 62.196C78.7236 61.6829 77.5662 61.9875 77.0439 62.8761C76.5213 63.7645 76.8314 64.9006 77.7368 65.4135L86.9112 70.612C87.2092 70.781 87.5345 70.8612 87.8557 70.8612C88.5097 70.8612 89.1458 70.5278 89.4963 69.932C90.0188 69.0436 89.7085 67.9075 88.8034 67.3946Z" fill="#FFE86D"/>
<path d="M7.91645 25.8486L17.091 31.0472C17.3889 31.2161 17.7142 31.2963 18.0354 31.2963C18.6894 31.2963 19.3255 30.963 19.676 30.3671C20.1986 29.4787 19.8885 28.3426 18.9831 27.8297L9.80863 22.6311C8.90354 22.1179 7.74613 22.4226 7.22356 23.3112C6.701 24.1996 7.01111 25.3354 7.91645 25.8486Z" fill="#FFE86D"/>
<path d="M93.9637 44.7642H83.3661C82.3209 44.7642 81.4736 45.5958 81.4736 46.6217C81.4736 47.6475 82.3209 48.4792 83.3661 48.4792H93.9637C95.0088 48.4792 95.8561 47.6475 95.8561 46.6217C95.8561 45.5958 95.0091 44.7642 93.9637 44.7642Z" fill="#FFE86D"/>
<path d="M15.2448 46.6217C15.2448 45.5958 14.3975 44.7642 13.3524 44.7642H2.75474C1.70961 44.7642 0.862305 45.5958 0.862305 46.6217C0.862305 47.6475 1.70961 48.4792 2.75474 48.4792H13.3524C14.3977 48.4792 15.2448 47.6475 15.2448 46.6217Z" fill="#FFE86D"/>
<path d="M60.2207 93H37V105.932C38.0244 112.564 45.537 110.906 54.757 110.574C62.133 110.309 61.4728 98.7476 60.2207 93Z" fill="#656262"/>
<path d="M71.8975 63.7882C75.8126 58.7209 77.8819 52.6725 77.8819 46.2968C77.8819 38.4796 74.7584 31.1515 69.0866 25.6624C63.4159 20.1746 55.8999 17.211 47.9348 17.3239C40.216 17.4312 32.9437 20.4713 27.4577 25.8844C21.9719 31.2972 18.9122 38.4514 18.8421 46.0286C18.782 52.5244 20.8635 58.6815 24.8613 63.8345C31.3513 72.1998 34.9257 82.4466 34.9257 92.6875V103.893C34.9257 108.864 39.0454 112.907 44.1093 112.907H52.6515C57.7154 112.907 61.8351 108.863 61.8351 103.893V92.6883C61.8353 82.3342 65.2897 72.3405 71.8975 63.7882ZM27.8725 61.5839C24.3884 57.0932 22.5745 51.7259 22.6267 46.0625C22.7526 32.4568 34.1296 21.2311 47.9883 21.0387C54.9406 20.9471 61.4859 23.5241 66.4291 28.3083C71.3739 33.0935 74.097 39.4822 74.097 46.297C74.097 51.8552 72.2937 57.1274 68.8817 61.5436C61.9194 70.555 58.1706 81.0681 58.0172 91.9896H38.7053C38.5471 81.1741 34.7143 70.4025 27.8725 61.5839ZM38.7106 102.634V101.13L58.0505 103.305V103.893C58.0505 104.203 58.0177 104.504 57.9657 104.799L38.7106 102.634ZM38.7106 97.391V95.7046H58.0505V99.5658L38.7106 97.391ZM44.1093 109.192C42.0763 109.192 40.3038 108.083 39.383 106.449L55.6748 108.281C54.8116 108.856 53.7711 109.192 52.6518 109.192L44.1093 109.192Z" fill="black"/>
<path d="M78.6844 31.2962C79.0054 31.2962 79.3309 31.2159 79.6289 31.047L88.8034 25.8484C89.7085 25.3355 90.0188 24.1994 89.4963 23.311C88.9737 22.4226 87.816 22.118 86.9112 22.6309L77.7367 27.8295C76.8316 28.3424 76.5213 29.4785 77.0438 30.3669C77.3943 30.9628 78.0307 31.2962 78.6844 31.2962Z" fill="#FFE86D"/>
<path d="M17.0909 62.1964L7.91639 67.3949C7.01131 67.9079 6.70095 69.0439 7.22351 69.9323C7.57399 70.5282 8.21009 70.8615 8.86412 70.8615C9.18507 70.8615 9.51057 70.7813 9.80857 70.6124L18.9831 65.4139C19.8881 64.9009 20.1985 63.7649 19.6759 62.8765C19.1536 61.9879 17.9955 61.6835 17.0909 62.1964Z" fill="#FFE86D"/>
<path d="M64.9213 18.4675C65.2193 18.6364 65.5445 18.7166 65.8657 18.7166C66.5197 18.7166 67.1559 18.3833 67.5063 17.7874L72.8026 8.78213C73.3252 7.89374 73.0148 6.75768 72.1097 6.24476C71.2049 5.73184 70.0472 6.03622 69.5247 6.92486L64.2284 15.9301C63.7058 16.8185 64.0162 17.9546 64.9213 18.4675Z" fill="#FFE86D"/>
</svg>
