<svg width="109" height="104" viewBox="0 0 109 104" fill="none" xmlns="http://www.w3.org/2000/svg">
<path fill-rule="evenodd" clip-rule="evenodd" d="M56.6573 73.8126C55.6989 75.9689 55.1479 80.2814 60.6104 80.2814H102.657C103.855 80.4012 106.251 79.2751 106.251 73.8126V26.0158C102.657 4.45327 70.4573 -9.63424 56.6573 26.0158C56.6566 46.602 56.6569 55.7082 56.6571 62.999C56.6572 66.6539 56.6573 69.8526 56.6573 73.8126ZM81.0938 27.0938C84.6663 27.0938 87.5625 24.1976 87.5625 20.625C87.5625 17.0524 84.6663 14.1562 81.0938 14.1562C77.5212 14.1562 74.625 17.0524 74.625 20.625C74.625 24.1976 77.5212 27.0938 81.0938 27.0938Z" fill="#E55D21"/>
<path d="M56.6573 73.8126L57.1142 74.0157L57.1573 73.9187L57.1573 73.8126L56.6573 73.8126ZM102.657 80.2814L102.707 79.7839L102.682 79.7814H102.657V80.2814ZM106.251 26.0158H106.751V25.9744L106.744 25.9336L106.251 26.0158ZM56.6573 26.0158L56.191 25.8353L56.1573 25.9223L56.1573 26.0157L56.6573 26.0158ZM56.6571 62.999L56.1571 62.999L56.6571 62.999ZM60.6104 79.7814C59.307 79.7814 58.4174 79.5238 57.8183 79.1497C57.2274 78.7809 56.8832 78.2768 56.7028 77.7051C56.3306 76.5254 56.657 75.0444 57.1142 74.0157L56.2004 73.6096C55.6992 74.7372 55.271 76.4905 55.7492 78.0061C55.9941 78.7821 56.4764 79.4909 57.2887 79.998C58.0926 80.4999 59.1825 80.7814 60.6104 80.7814V79.7814ZM102.657 79.7814H60.6104V80.7814H102.657V79.7814ZM105.751 73.8126C105.751 76.4789 105.165 78.0007 104.511 78.8307C103.861 79.6553 103.125 79.8256 102.707 79.7839L102.608 80.7789C103.388 80.8569 104.449 80.5242 105.296 79.45C106.139 78.3813 106.751 76.6088 106.751 73.8126H105.751ZM105.751 26.0158V73.8126H106.751V26.0158H105.751ZM57.1236 26.1963C60.5467 17.3532 65.0916 11.6438 70.0008 8.35925C74.9051 5.07805 80.2052 4.19414 85.1966 5.05382C95.2075 6.77801 103.995 15.5226 105.758 26.098L106.744 25.9336C104.913 14.9464 95.804 5.86602 85.3664 4.06833C80.1335 3.16707 74.5716 4.09801 69.4448 7.52812C64.323 10.9549 59.6679 16.8534 56.191 25.8353L57.1236 26.1963ZM57.1571 62.999C57.1569 55.7082 57.1566 46.602 57.1573 26.0158L56.1573 26.0157C56.1566 46.602 56.1569 55.7082 56.1571 62.999L57.1571 62.999ZM57.1573 73.8126C57.1573 69.8526 57.1572 66.6539 57.1571 62.999L56.1571 62.999C56.1572 66.654 56.1573 69.8526 56.1573 73.8126L57.1573 73.8126ZM87.0625 20.625C87.0625 23.9214 84.3902 26.5938 81.0938 26.5938V27.5938C84.9425 27.5938 88.0625 24.4737 88.0625 20.625H87.0625ZM81.0938 14.6562C84.3902 14.6562 87.0625 17.3286 87.0625 20.625H88.0625C88.0625 16.7763 84.9425 13.6562 81.0938 13.6562V14.6562ZM75.125 20.625C75.125 17.3286 77.7973 14.6562 81.0938 14.6562V13.6562C77.245 13.6562 74.125 16.7763 74.125 20.625H75.125ZM81.0938 26.5938C77.7973 26.5938 75.125 23.9214 75.125 20.625H74.125C74.125 24.4737 77.245 27.5938 81.0938 27.5938V26.5938Z" fill="black"/>
<path fill-rule="evenodd" clip-rule="evenodd" d="M21.4357 99.3281L14.967 88.9062V46.8594C2.0302 44.3438 -7.31288 6.60938 24.3107 1.9375C60.6091 4.8125 50.1872 42.9062 37.2497 46.8594V56.9219L34.7341 61.9531L37.2497 66.9844L31.4997 72.7344L36.1716 77.7656L33.2966 83.875L36.1716 88.9062L21.4357 99.3281ZM25.75 27.0938C29.3226 27.0938 32.2188 24.1976 32.2188 20.625C32.2188 17.0524 29.3226 14.1562 25.75 14.1562C22.1774 14.1562 19.2812 17.0524 19.2812 20.625C19.2812 24.1976 22.1774 27.0938 25.75 27.0938Z" fill="#C4C4C4"/>
<g filter="url(#filter0_d)">
<path d="M81.454 2.2998C75.2283 2.29784 69.1949 4.47284 64.3842 8.45338C60.5105 7.961 56.6094 7.71919 52.7049 7.72943C49.5246 7.72943 46.5239 7.87422 43.7388 8.1457C41.2306 5.55454 38.2002 3.53493 34.8518 2.22292C31.5034 0.910913 27.9147 0.336987 24.3275 0.539806C20.7403 0.742625 17.2379 1.71748 14.0563 3.39869C10.8747 5.0799 8.08774 7.42843 5.8832 10.286C3.67867 13.1437 2.10775 16.444 1.27629 19.9647C0.444827 23.4854 0.372131 27.1448 1.0631 30.6962C1.75406 34.2476 3.19264 37.6086 5.28192 40.5527C7.3712 43.4969 10.0626 45.9558 13.175 47.7639V89.1739C13.1741 89.5292 13.2806 89.8764 13.4804 90.1693L20.6677 101.029C20.8018 101.235 20.976 101.412 21.1798 101.549C21.3836 101.686 21.6128 101.78 21.8536 101.825C21.9547 101.84 22.0569 101.846 22.159 101.843C22.5477 101.842 22.9257 101.715 23.2371 101.481L37.6117 90.6218C37.9788 90.3458 38.2264 89.9382 38.3033 89.4833C38.3803 89.0285 38.2806 88.5613 38.0249 88.1784L35.0961 83.7442L38.0249 79.31C38.2556 78.9632 38.3602 78.5467 38.3209 78.1311C38.2816 77.7155 38.1009 77.3263 37.8093 77.0296L33.6766 72.885L37.8093 68.7404C38.0421 68.4981 38.2052 68.1968 38.2812 67.8684C38.3571 67.5401 38.3431 67.1971 38.2405 66.8762L36.6234 62.0257L38.2405 57.1753C38.2967 56.9873 38.3269 56.7924 38.3304 56.5961V47.7639C42.1567 45.5445 45.3342 42.3479 47.5425 38.4966C49.7507 34.6454 50.9117 30.2756 50.9081 25.8282C50.9081 25.2128 50.8542 24.5975 50.8183 23.9821C51.4472 24.0002 52.0581 24.0183 52.7049 24.0183C53.4776 24.0183 54.2682 23.964 55.0588 23.9459C54.6903 25.7565 54.5036 27.5998 54.5017 29.4479V78.3146C54.5046 79.2738 54.8841 80.1928 55.5574 80.871C56.2308 81.5492 57.1432 81.9315 58.0954 81.9344H104.813C105.765 81.9315 106.677 81.5492 107.351 80.871C108.024 80.1928 108.403 79.2738 108.406 78.3146V29.4479C108.398 22.2505 105.555 15.3502 100.503 10.2608C95.45 5.17143 88.5995 2.30842 81.454 2.2998ZM35.707 45.0853C35.4141 45.2382 35.1685 45.4693 34.9974 45.7535C34.8262 46.0376 34.7361 46.3637 34.7368 46.6961V56.3065L33.0298 61.4466C32.9038 61.8222 32.9038 62.2292 33.0298 62.6049L34.4852 66.9667L29.8674 71.6C29.5307 71.9417 29.3418 72.4036 29.3418 72.885C29.3418 73.3664 29.5307 73.8283 29.8674 74.17L34.2157 78.5499L31.4486 82.7488C31.2468 83.041 31.1386 83.3883 31.1386 83.7442C31.1386 84.1002 31.2468 84.4475 31.4486 84.7397L34.0899 88.7576L22.6082 97.445L16.7686 88.6309V46.6961C16.7693 46.3637 16.6791 46.0376 16.5079 45.7535C16.3368 45.4693 16.0913 45.2382 15.7983 45.0853C12.614 43.421 9.89234 40.9827 7.87983 37.9913C5.86733 35 4.62761 31.5501 4.27301 27.9543C3.91841 24.3585 4.46013 20.7304 5.84909 17.3987C7.23805 14.067 9.43035 11.137 12.2274 8.87429C15.0244 6.61153 18.3377 5.08749 21.8671 4.44024C25.3965 3.793 29.0305 4.04301 32.4398 5.16762C35.849 6.29223 38.9259 8.2559 41.3915 10.8807C43.857 13.5055 45.6335 16.7085 46.5598 20.1995C42.4829 20.0009 38.437 19.3823 34.4852 18.3534C33.9817 16.1755 32.6954 14.2625 30.8745 12.9833C29.0536 11.7042 26.8269 11.1494 24.624 11.426C22.421 11.7026 20.3977 12.791 18.9442 14.4813C17.4908 16.1716 16.7101 18.3441 16.7528 20.5799C16.7955 22.8156 17.6585 24.9563 19.1754 26.5891C20.6923 28.2218 22.7556 29.2311 24.9675 29.4221C27.1795 29.6132 29.3833 28.9726 31.154 27.6239C32.9248 26.2751 34.1371 24.3137 34.5571 22.1179C38.7187 23.0849 42.9584 23.6725 47.2246 23.8735C47.2785 24.507 47.3145 25.1585 47.3145 25.8282C47.3161 29.801 46.2345 33.6979 44.1876 37.0938C42.1407 40.4897 39.2071 43.254 35.707 45.0853ZM31.0712 21.032C30.9469 22.0681 30.5278 23.0459 29.8645 23.8477C29.2012 24.6495 28.322 25.241 27.3326 25.5511C26.3433 25.8612 25.2861 25.8766 24.2882 25.5955C23.2904 25.3144 22.3945 24.7487 21.7084 23.9666C21.0224 23.1845 20.5754 22.2194 20.4213 21.1873C20.2672 20.1552 20.4126 19.1003 20.8399 18.1496C21.2673 17.1988 21.9584 16.3928 22.83 15.8285C23.7016 15.2641 24.7165 14.9657 25.7527 14.9689C25.7886 14.9689 25.8425 14.987 25.8784 14.987C25.7964 15.2754 25.754 15.5738 25.7527 15.8739C25.7527 17.9733 27.5495 19.6927 31.0712 21.032ZM56.1009 20.3081C54.1424 20.3805 52.2018 20.3986 50.2972 20.3443C49.6099 17.196 48.329 14.21 46.5239 11.5483C48.4824 11.4216 50.5487 11.3492 52.7049 11.3492C55.5978 11.3492 58.4188 11.494 61.0781 11.7293C58.9068 14.2543 57.2192 17.1631 56.1009 20.3081ZM104.813 78.3146H58.0954V29.4479C58.0992 27.5499 58.3345 25.6595 58.7961 23.8192H59.1016C63.6652 23.5846 68.1899 22.8503 72.5957 21.6293C72.8973 23.8369 73.9969 25.8548 75.684 27.2964C77.371 28.738 79.5268 29.5019 81.7384 29.4418C83.9499 29.3816 86.0617 28.5017 87.669 26.9705C89.2764 25.4393 90.2664 23.3646 90.4492 21.1438C90.6321 18.923 89.9951 16.7123 88.6601 14.9353C87.3252 13.1582 85.3863 11.9398 83.2148 11.5135C81.0433 11.0871 78.792 11.4828 76.8922 12.6247C74.9924 13.7666 73.5777 15.5745 72.9191 17.7018C68.7385 19.0561 64.4028 19.865 60.018 20.109C61.3105 17.1426 63.1942 14.4752 65.5522 12.2722C65.6008 12.2684 65.6497 12.2745 65.6959 12.2903L65.7318 12.0912C69.0714 9.00941 73.2295 6.97361 77.6985 6.23237C82.1675 5.49113 86.754 6.07652 90.8983 7.91707C95.0425 9.75762 98.5651 12.7737 101.036 16.5971C103.507 20.4205 104.819 24.8858 104.813 29.4479V78.3146ZM79.6033 15.3128C80.6808 14.916 81.856 14.8759 82.9577 15.1983C84.0595 15.5207 85.0304 16.1888 85.7292 17.1053C86.428 18.0218 86.8182 19.139 86.8432 20.2944C86.8681 21.4498 86.5264 22.583 85.8678 23.5293C85.2092 24.4755 84.268 25.1854 83.1812 25.5557C82.0944 25.926 80.9187 25.9374 79.825 25.5882C78.7313 25.2389 77.7768 24.5473 77.1003 23.614C76.4238 22.6806 76.0606 21.5542 76.0635 20.3986C76.0635 20.3624 76.0815 20.3262 76.0815 20.29C78.4533 19.0774 79.6572 17.5933 79.6572 15.8739C79.6553 15.6856 79.6373 15.4979 79.6033 15.3128Z" fill="black"/>
</g>
<defs>
<filter id="filter0_d" x="0.59375" y="0.5" width="107.812" height="103.344" filterUnits="userSpaceOnUse" color-interpolation-filters="sRGB">
<feFlood flood-opacity="0" result="BackgroundImageFix"/>
<feColorMatrix in="SourceAlpha" type="matrix" values="0 0 0 0 0 0 0 0 0 0 0 0 0 0 0 0 0 0 127 0"/>
<feOffset dy="2"/>
<feColorMatrix type="matrix" values="0 0 0 0 0 0 0 0 0 0 0 0 0 0 0 0 0 0 0.25 0"/>
<feBlend mode="normal" in2="BackgroundImageFix" result="effect1_dropShadow"/>
<feBlend mode="normal" in="SourceGraphic" in2="effect1_dropShadow" result="shape"/>
</filter>
</defs>
</svg>
