<svg width="100" height="100" viewBox="0 0 100 100" fill="none" xmlns="http://www.w3.org/2000/svg">
<path d="M2.91309 28.1553V35.4368H29.1267V28.1553H2.91309Z" fill="#E55D21"/>
<path d="M57.2812 27.1846V34.4661H83.4948V27.1846H57.2812Z" fill="#E55D21"/>
<path d="M92.2334 25.2427L98.0586 25.2427L98.0586 -4.18922e-05L92.2334 -4.19617e-05L92.2334 25.2427Z" fill="#E55D21"/>
<path d="M1.94141 1.45654V8.7381H28.155V1.45654H1.94141Z" fill="#E55D21"/>
<path d="M24.272 27.6698H4.85449V8.73779H24.272V27.6698Z" fill="#C4C4C4"/>
<path d="M90.7765 5.33965C61.262 0.291104 59.0613 18.4464 61.6503 28.1552H81.0682C80.6798 19.2232 87.3786 20.55 90.7765 22.3299V5.33965Z" fill="#C4C4C4" stroke="black"/>
<path d="M24.7572 34.9517H5.8252C5.8252 47.573 10.6796 70.3886 45.1456 71.3594C72.7184 72.1361 80.9061 47.4112 81.5534 34.9517H61.6504C58.7378 61.1653 25.7928 54.3691 25.7928 36.8934C25.4211 36.2377 25.0754 35.5879 24.7572 34.9517Z" fill="#C4C4C4"/>
<path d="M46.1172 73.7864C34.8551 90.0971 53.3988 92.233 37.3793 98.5437C34.7903 97.411 30.389 93.0097 33.4958 84.466C37.3793 76.699 30.5832 71.3592 29.1269 69.9029C27.9618 68.7378 39.9683 72.0064 46.1172 73.7864Z" fill="#56CCF2"/>
<path d="M62.6217 67.4756L51.9421 69.9029C53.0748 71.1974 55.5343 74.6601 56.311 78.1552C57.0877 81.6503 60.8418 79.6115 62.6217 78.1552V67.4756Z" fill="#56CCF2"/>
<path d="M90 3.34185H75C66.7196 3.35082 60.009 10.0786 60 18.3801V26.7348H56.6667V36.7603H59.9015C59.0462 44.3659 52.6343 50.1171 45 50.1277H41.6667C34.0324 50.1171 27.6204 44.3659 26.7651 36.7603H30V26.7348H26.6667V10.0255H30V0H0V10.0255H3.33333V26.7348H0V36.7603H3.37484C4.03239 51.5473 13.0876 64.6471 26.6667 70.4562C30.3149 74.0167 32.7734 77.148 33.4147 79.0612C33.9836 80.7721 33.1551 83.0501 32.2786 85.4626C31.0449 88.8632 29.6452 92.7142 31.945 96.1703C33.2072 98.458 35.5762 99.9127 38.1836 100C40.8577 99.8768 43.3016 98.4449 44.7201 96.1686C46.145 94.0196 45.6364 91.1803 45.0537 87.8956C44.1252 82.7156 43.182 77.3691 48.8232 73.3281C49.8014 73.2318 50.7666 73.0882 51.7236 72.9177C54.0283 73.9318 55.1449 75.2046 55.0114 76.7091C54.7274 78.6003 55.529 80.4915 57.085 81.5994C57.8817 82.1184 58.8135 82.3909 59.7632 82.3851C60.6266 82.3851 61.4762 82.1714 62.2363 81.7634C64.0104 80.7877 65.0806 78.8891 65 76.8624C65 76.0923 64.9634 75.3588 64.9235 74.6449C64.6118 72.061 65.0496 69.4412 66.1833 67.0996C76.3949 60.3091 82.7531 49.0336 83.2918 36.7603H86.6667V26.7348H83.3333V25.0638C83.3333 24.1411 84.0796 23.3929 85 23.3929H90V26.7348H100V0H90V3.34185ZM3.33333 3.34185H26.6667V6.68369H3.33333V3.34185ZM6.66667 10.0255H23.3333V26.7348H6.66667V10.0255ZM3.33333 30.0766H26.6667V33.4185H3.33333V30.0766ZM41.7684 88.4871C42.2103 90.9568 42.6286 93.2878 41.9466 94.3149C41.1393 95.6546 39.7404 96.5252 38.1852 96.6549C36.7065 96.5211 35.3988 95.6383 34.7201 94.3149C33.3602 92.2703 34.3587 89.5184 35.415 86.6057C36.4486 83.7648 37.5163 80.8195 36.582 78.0039C35.7682 76.0074 34.62 74.166 33.1852 72.5595C35.9676 73.1959 38.8127 73.5182 41.6667 73.5206H43.763C39.952 78.3498 40.9766 84.0773 41.7684 88.4871ZM61.6016 74.8219C61.6382 75.482 61.6732 76.1592 61.6732 76.8624C61.748 77.6571 61.3525 78.4224 60.6616 78.8189C60.1253 79.129 59.4645 79.129 58.9282 78.8189C58.418 78.3686 58.1901 77.6775 58.3333 77.0109C58.492 75.0479 57.701 73.1282 56.2069 71.8497C58.1348 71.2574 60.013 70.5116 61.8237 69.6207C61.5169 71.3365 61.4404 73.0857 61.5951 74.8219H61.6016ZM45 70.1788H41.6667C40.9082 70.1788 40.1668 70.1151 39.4181 70.0686L37.1167 64.302L45.7446 59.986L44.2554 56.9949L35 61.6267L29.078 58.6496L27.5887 61.6406L33.6882 64.6985L35.6519 69.6207C19.5337 66.7855 7.51872 53.1456 6.70492 36.7603H23.4082C24.2814 46.2196 32.1916 53.4581 41.6667 53.4695H45C54.4751 53.4581 62.3853 46.2196 63.2585 36.7603H79.9618C79.0495 55.4586 63.6735 70.1567 45 70.1788ZM83.3333 33.4185H60V30.0766H83.3333V33.4185ZM85 20.0511C82.2388 20.0511 80 22.2956 80 25.0638V26.7348H63.3333V18.3801C63.3415 11.9241 68.5604 6.69185 75 6.68369H90V20.0511H85ZM96.6667 3.34185V23.3929H93.3333V3.34185H96.6667Z" fill="black"/>
<path d="M66.9902 18.0303V21.359H70.3189V18.0303C70.3189 15.2729 72.5546 13.0372 75.312 13.0372H78.6407V9.7085H75.312C70.718 9.71418 66.9959 13.4362 66.9902 18.0303Z" fill="black"/>
<path d="M16.5049 12.6216H19.4175V23.3012H16.5049V12.6216Z" fill="black"/>
<path d="M16.5049 39.8057H19.4175V43.6892H16.5049V39.8057Z" fill="black"/>
<path d="M81.5537 9.7085H85.4372V12.6211H81.5537V9.7085Z" fill="black"/>
</svg>
