<svg width="24" height="24" viewBox="0 0 24 24" fill="none" xmlns="http://www.w3.org/2000/svg">
<path d="M20.3478 0H3.65219C1.63824 0 0 1.63824 0 3.65219V15.1305C0 17.1444 1.63824 18.7826 3.65219 18.7826H14.9145L19.9785 23.8476C20.0786 23.9468 20.2122 24 20.3479 24C20.4146 24 20.4825 23.9865 20.5472 23.9603C20.7423 23.88 20.8696 23.689 20.8696 23.4782V18.7461C22.6373 18.4915 24 16.9669 24 15.1304V3.65219C24 1.63824 22.3617 0 20.3478 0ZM22.9565 15.1304C22.9565 16.5694 21.7857 17.7391 20.3478 17.7391C20.0598 17.7391 19.8261 17.9728 19.8261 18.2608V22.2187L15.4998 17.8914C15.4017 17.7944 15.2692 17.7391 15.1304 17.7391H3.65219C2.21429 17.7391 1.04351 16.5693 1.04351 15.1304V3.65219C1.04351 2.21322 2.21429 1.04351 3.65219 1.04351H20.3478C21.7857 1.04351 22.9565 2.21326 22.9565 3.65219V15.1304Z" fill="#E55D21"/>
<path d="M12 12.5219C11.1371 12.5219 10.4348 13.2241 10.4348 14.0871C10.4348 14.95 11.1371 15.6523 12 15.6523C12.863 15.6523 13.5652 14.95 13.5652 14.0871C13.5652 13.2241 12.863 12.5219 12 12.5219ZM12 14.6088C11.712 14.6088 11.4783 14.374 11.4783 14.0871C11.4783 13.8001 11.712 13.5653 12 13.5653C12.288 13.5653 12.5218 13.8001 12.5218 14.0871C12.5218 14.374 12.288 14.6088 12 14.6088Z" fill="#E55D21"/>
<path d="M13.6674 3.62914C13.3721 3.31194 12.9547 3.13037 12.5217 3.13037H11.4782C11.0452 3.13037 10.6288 3.31194 10.3335 3.62914C10.0382 3.94531 9.88686 4.37418 9.91714 4.81454L10.3585 9.95574C10.419 10.8093 11.137 11.4782 11.9999 11.4782C12.8555 11.4782 13.5735 10.8093 13.633 9.96406L14.0827 4.80721C14.114 4.37526 13.9627 3.94639 13.6674 3.62914ZM13.0434 4.72479L12.5926 9.88271C12.5707 10.1926 12.3099 10.4347 11.9916 10.4347C11.6806 10.4347 11.4208 10.1926 11.3978 9.87435L10.9575 4.73315C10.9471 4.58602 10.9961 4.44618 11.0962 4.33975C11.1964 4.23331 11.332 4.17383 11.4781 4.17383H12.5217C12.6678 4.17383 12.8034 4.23331 12.9036 4.33975C13.0037 4.44618 13.0528 4.58602 13.0434 4.72479Z" fill="#E55D21"/>
</svg>
