<svg width="20" height="24" viewBox="0 0 20 24" fill="none" xmlns="http://www.w3.org/2000/svg">
<path d="M9.62013 0C4.31698 0 0 4.31698 0 9.62013C0 10.2239 0.0553458 10.8327 0.171069 11.4264C0.176101 11.4616 0.196226 11.5673 0.236478 11.7484C0.38239 12.3975 0.598742 13.0365 0.880503 13.6453C1.91698 16.0855 4.19623 19.834 9.19749 23.8491C9.32327 23.9497 9.47422 24 9.62516 24C9.7761 24 9.92705 23.9497 10.0528 23.8491C15.0491 19.834 17.3333 16.0855 18.3698 13.6453C18.6516 13.0365 18.8679 12.4025 19.0138 11.7484C19.0541 11.5673 19.0742 11.4616 19.0792 11.4264C19.1899 10.8327 19.2503 10.2239 19.2503 9.62013C19.2403 4.31698 14.9233 0 9.62013 0ZM17.7308 11.1899C17.7308 11.2 17.7258 11.2101 17.7258 11.2201C17.7208 11.2453 17.7057 11.3208 17.6805 11.4365C17.6805 11.4415 17.6805 11.4415 17.6805 11.4465C17.5547 12.0101 17.3686 12.5585 17.122 13.0868C17.117 13.0918 17.117 13.1019 17.112 13.1069C16.1711 15.3358 14.1082 18.7371 9.62013 22.4453C5.13208 18.7371 3.06918 15.3358 2.1283 13.1069C2.12327 13.1019 2.12327 13.0918 2.11824 13.0868C1.87673 12.5635 1.69057 12.0101 1.55975 11.4465C1.55975 11.4415 1.55975 11.4415 1.55975 11.4365C1.52956 11.3208 1.5195 11.2453 1.51447 11.2201C1.51447 11.2101 1.50943 11.2 1.50943 11.1849C1.40881 10.6667 1.35849 10.1434 1.35849 9.61509C1.35849 5.06164 5.06667 1.35346 9.62013 1.35346C14.1736 1.35346 17.8818 5.06164 17.8818 9.61509C17.8818 10.1484 17.8314 10.6767 17.7308 11.1899Z" fill="#E55D21"/>
<path d="M9.62087 3.61743C6.25483 3.61743 3.5127 6.35957 3.5127 9.72561C3.5127 13.0916 6.25483 15.8338 9.62087 15.8338C12.9869 15.8338 15.729 13.0916 15.729 9.72561C15.729 6.35957 12.9869 3.61743 9.62087 3.61743ZM9.62087 14.4753C6.99949 14.4753 4.87119 12.342 4.87119 9.72561C4.87119 7.10926 7.00452 4.97592 9.62087 4.97592C12.2372 4.97592 14.3706 7.10926 14.3706 9.72561C14.3706 12.342 12.2423 14.4753 9.62087 14.4753Z" fill="#E55D21"/>
</svg>
