<svg width="24" height="24" viewBox="0 0 24 24" fill="none" xmlns="http://www.w3.org/2000/svg">
<path d="M12 0C5.3726 0 0 5.3726 0 12C0 18.6274 5.3726 24 12 24C18.6274 24 24 18.6274 24 12C23.9925 5.3757 18.6243 0.0075 12 0ZM12 23.2C5.8144 23.2 0.8 18.1856 0.8 12C0.8 5.8144 5.8144 0.8 12 0.8C18.1856 0.8 23.2 5.8144 23.2 12C23.193 18.1826 18.1826 23.193 12 23.2Z" fill="#E55D21"/>
<path d="M11.9999 2.00012C6.47703 2.00012 1.99988 6.47727 1.99988 12.0001C1.99988 17.523 6.47703 22.0001 11.9999 22.0001C17.5227 22.0001 21.9999 17.523 21.9999 12.0001C21.9937 6.47982 17.5202 2.00627 11.9999 2.00012ZM11.9999 21.2001C6.91888 21.2001 2.79988 17.0811 2.79988 12.0001C2.79988 6.91912 6.91888 2.80012 11.9999 2.80012C17.0809 2.80012 21.1999 6.91912 21.1999 12.0001C21.1941 17.0788 17.0785 21.1944 11.9999 21.2001Z" fill="#E55D21"/>
<path d="M12.4001 3.99988H11.6001V4.79988H12.4001V3.99988Z" fill="#E55D21"/>
<path d="M12.4001 19.1998H11.6001V19.9998H12.4001V19.1998Z" fill="#E55D21"/>
<path d="M8.34588 4.87221L7.6535 5.27209L8.05338 5.96447L8.74576 5.56459L8.34588 4.87221Z" fill="#E55D21"/>
<path d="M15.9433 18.0336L15.2509 18.4335L15.6508 19.1258L16.3432 18.726L15.9433 18.0336Z" fill="#E55D21"/>
<path d="M5.27189 7.65364L4.87189 8.34644L5.56469 8.74643L5.96469 8.05364L5.27189 7.65364Z" fill="#E55D21"/>
<path d="M18.4339 15.2548L18.0339 15.9476L18.7267 16.3476L19.1267 15.6548L18.4339 15.2548Z" fill="#E55D21"/>
<path d="M4.80012 11.6001H4.00012V12.4001H4.80012V11.6001Z" fill="#E55D21"/>
<path d="M19.9997 11.6001H19.1997V12.4001H19.9997V11.6001Z" fill="#E55D21"/>
<path d="M5.56471 15.2541L4.87183 15.6541L5.27175 16.3469L5.96463 15.947L5.56471 15.2541Z" fill="#E55D21"/>
<path d="M18.7267 7.65371L18.0339 8.05371L18.4339 8.74651L19.1267 8.34651L18.7267 7.65371Z" fill="#E55D21"/>
<path d="M8.051 18.0349L7.65112 18.7273L8.3435 19.1272L8.74338 18.4348L8.051 18.0349Z" fill="#E55D21"/>
<path d="M15.6531 4.87281L15.2532 5.56519L15.9456 5.96507L16.3455 5.27269L15.6531 4.87281Z" fill="#E55D21"/>
<path d="M11.6005 5.6001V11.7737L7.79449 14.0573L8.20649 14.7429L12.2065 12.3429C12.3268 12.2706 12.4005 12.1405 12.4005 12.0001V5.6001H11.6005Z" fill="#E55D21"/>
</svg>
