<svg width="478" height="460" viewBox="0 0 478 460" fill="none" xmlns="http://www.w3.org/2000/svg">
<mask id="mask0" mask-type="alpha" maskUnits="userSpaceOnUse" x="0" y="0" width="478" height="460">
<rect width="478" height="460" fill="#C4C4C4"/>
</mask>
<g mask="url(#mask0)">
<g filter="url(#filter0_d)">
<g filter="url(#filter1_d)">
<path fill-rule="evenodd" clip-rule="evenodd" d="M354.609 349.389L374.712 401.992H383.827L371.734 346.811L354.609 349.389Z" fill="#453C3C"/>
</g>
<path fill-rule="evenodd" clip-rule="evenodd" d="M251.918 349.389L272.02 401.992H281.136L269.042 346.811L251.918 349.389Z" fill="#464141"/>
<path fill-rule="evenodd" clip-rule="evenodd" d="M98.5308 401.992H107.647L127.748 349.389L110.624 346.811L98.5308 401.992Z" fill="#453C3C"/>
<g filter="url(#filter2_d)">
<path fill-rule="evenodd" clip-rule="evenodd" d="M201.223 401.992H210.339L230.441 349.389L213.316 346.811L201.223 401.992Z" fill="#453C3C"/>
</g>
<path fill-rule="evenodd" clip-rule="evenodd" d="M109.74 226.285V353.653L228.622 353.936L248.172 227.943L109.74 226.285ZM118.794 236.475L237.44 237.896L221.001 343.837L118.794 343.594V236.475Z" fill="#1B1B2E"/>
<path fill-rule="evenodd" clip-rule="evenodd" d="M265.743 147.994L233.788 353.936H373.194L405.15 147.994H265.743Z" fill="#DEDEDE"/>
<g filter="url(#filter3_i)">
<path fill-rule="evenodd" clip-rule="evenodd" d="M228.256 147.994L196.3 353.936H334.016L365.972 147.994H228.256Z" fill="white"/>
</g>
<path fill-rule="evenodd" clip-rule="evenodd" d="M194.111 353.936H358.041C366.41 353.936 373.195 346.382 373.195 337.063V298.175C373.195 288.855 366.41 281.301 358.041 281.301H194.111C185.742 281.301 178.957 288.855 178.957 298.175V337.063C178.957 346.382 185.742 353.936 194.111 353.936" fill="#DEDEDE"/>
<path fill-rule="evenodd" clip-rule="evenodd" d="M109.125 353.936H254.312V281.301H109.125V353.936Z" fill="white"/>
</g>
<path fill-rule="evenodd" clip-rule="evenodd" d="M196.049 391.145L206.787 394.358C206.787 394.358 212.515 405.169 212.508 406.813C212.501 408.458 207.744 423.454 205.849 424.437C205.428 424.655 204.708 426.399 203.658 428.94C200.242 437.211 193.337 453.928 181.914 453.96C173.154 453.984 175.104 447.386 177.657 438.75C178.184 436.966 178.737 435.094 179.227 433.176C183.892 414.902 196.049 391.145 196.049 391.145ZM68.5588 397.72L109.038 386.658C109.038 386.658 113.894 406.422 97.9911 405.349C97.9911 405.349 73.3117 422.463 59.1592 414.653C49.7456 409.459 53.8233 406.957 61.7293 402.107C63.8009 400.836 66.1353 399.404 68.5588 397.72Z" fill="white"/>
<path d="M178.285 230.176C168.032 227.796 156.394 232.441 151.739 243.642C131.065 293.383 100.146 369.176 95.9215 380.189L68.5593 397.72C68.5593 397.72 70.6622 401.954 77.1184 403.454C83.5746 404.953 109.044 387.706 109.044 387.706L108.875 387.55L172.38 291.25C180.877 340.079 190.216 393.458 191.627 400.337C187.297 411.181 181.476 428.32 187.285 429.742C195.837 431.836 207.113 403.919 207.113 403.919L207.037 403.838L209.073 279.554L239.562 274.894L230.309 247.433L199.661 230.613C192.44 226.65 184.612 226.999 178.285 230.176Z" fill="#FFEEED"/>
<path opacity="0.20266" d="M172.381 291.259C172.381 291.259 163.421 253.5 166.928 241.933C170.435 230.365 184.207 229.457 184.207 229.457" stroke="black" stroke-opacity="0.4"/>
<path d="M294.436 216.719C294.436 216.719 317.492 247.647 306.437 269.888C294.586 293.729 212.95 279.684 212.95 279.684C212.95 279.684 201.936 239.811 160.575 231.986L243.347 210.902L294.436 216.719Z" fill="#2F2F3D"/>
<path d="M266.715 123.162L311.373 128.969L318.1 129.843C318.1 129.843 321.449 113.122 311.143 97.7615C308.162 93.3152 308.065 89.7595 308.665 85.9487C309.182 82.6709 310.208 79.1984 310.348 74.8016C310.179 56.1855 297.71 40.2263 277.506 37.5992C259.654 35.2781 240.548 43.9247 233.655 58.4957C229.195 67.9219 228.778 73.6201 228.763 81.4938C228.734 96.4536 219.969 95.4013 214.782 104.945C211.248 111.448 212.586 116.124 212.586 116.124L266.715 123.162L266.715 123.162Z" fill="#F6B852"/>
<path fill-rule="evenodd" clip-rule="evenodd" d="M262.648 115.088C262.648 115.088 270.282 116.309 273.782 114.964L262.394 120.15L262.648 115.088Z" fill="#CF3E83"/>
<path d="M237.911 79.9905C237.624 88.8737 238.471 103.887 245.905 110.319C249.47 113.404 256.542 114.647 262.648 115.088L261.782 132.346C261.782 132.346 283.596 131.171 282.085 129.463C281.947 129.307 281.954 127.485 282.005 125.15L266.715 123.162C268.249 111.554 284.438 110.142 278.911 98.6252C273.666 87.698 255.724 104.107 245.723 77.5479C245.619 77.2734 245.519 77.0018 245.422 76.7329C243.19 78.2507 240.651 79.3718 237.911 79.9905V79.9905Z" fill="#FFEEED"/>
<path fill-rule="evenodd" clip-rule="evenodd" d="M249.536 86.0619L243.757 96.0408L248.859 96.6006L249.536 86.0619Z" fill="#AE9BA8"/>
<path fill-rule="evenodd" clip-rule="evenodd" d="M240.744 85.0417C240.576 87.1633 241.607 88.9674 243.05 89.0718C244.493 89.1763 245.799 87.5411 245.969 85.4196C246.138 83.298 245.106 81.4939 243.663 81.3895C242.22 81.285 240.914 82.9208 240.744 85.0417" fill="#0F144C"/>
<path d="M249.44 101.816C249.44 101.816 252.615 103.308 256.421 100.076" stroke="#1C295E"/>
<path opacity="0.397507" fill-rule="evenodd" clip-rule="evenodd" d="M262.66 115.09C262.66 115.09 270.294 116.311 273.795 114.965L262.406 120.152L262.66 115.09Z" fill="black"/>
<g filter="url(#filter4_d)">
<path fill-rule="evenodd" clip-rule="evenodd" d="M254.314 226.284V353.653L373.196 353.936L392.747 227.942L254.314 226.284ZM263.369 236.475L382.015 237.896L365.576 343.837L263.369 343.594V236.475Z" fill="#18182C"/>
</g>
<path fill-rule="evenodd" clip-rule="evenodd" d="M253.232 139.211C256.828 133.175 261.642 129.799 261.642 129.799L283.644 128.746C283.644 128.746 281.77 133.538 279.786 139.699C275.864 151.88 266.561 154.617 258.455 154.604C250.883 154.592 248.31 147.468 253.232 139.211ZM199.03 174.597C199.425 170.762 199.58 166.173 198.351 164.529C196.097 161.513 184.952 152.395 184.952 152.395L184.358 160.004L181.72 151.072C181.72 151.072 178.798 151.931 175.97 153.399C173.931 154.457 171.977 155.892 170.75 156.793L170.75 156.793C170.458 157.007 170.208 157.191 170.007 157.333C168.508 158.389 172.865 174.649 175.97 177.575C178.102 179.583 184.389 181.14 188.12 181.919C195.245 193.335 214.236 221.859 224.727 219.506C235.626 217.062 245.738 179.264 245.738 179.264L227.355 170.379L219.35 194.855L199.03 174.597ZM323.951 257.431L319.476 268.784C319.476 268.784 318.797 271.706 318.417 275.161C318.4 275.317 318.383 275.471 318.367 275.622C318.02 278.811 317.787 280.951 315.586 285.899C313.98 289.511 319.179 288.432 320.654 286.414C321.198 285.67 321.646 284.099 322.111 282.466C322.946 279.537 323.839 276.408 325.446 277.492C327.949 279.179 328.703 287.764 328.143 295.87C328.055 297.144 328.946 298.183 329.583 298.549C330.617 299.143 332.125 294.126 332.125 294.126C332.125 294.126 332.668 295.889 334.313 295.153C334.896 294.892 336.632 291.479 336.632 291.479C336.632 291.479 337.976 289.797 338.683 287.919C339.931 284.603 340.95 278.449 340.709 276.641C340.142 272.379 338.865 265.186 337.187 261.201C338.178 250.961 341.976 209.85 339.881 202.041C337.483 193.105 332.785 180.996 332.785 180.996L314.756 191.515L322.485 207.884L323.951 257.431Z" fill="#FFEEED"/>
<path fill-rule="evenodd" clip-rule="evenodd" d="M175.624 153.629C177.284 152.685 178.864 151.978 179.638 152.158C180.993 152.471 178.514 155.996 176.705 158.317L176.726 158.405C179.645 159.571 183.47 161.299 184.085 162.564C184.515 163.447 182.837 163.735 180.759 163.774C182.672 164.684 184.341 165.668 184.729 166.467C185.226 167.49 182.898 167.715 180.393 167.679C182.605 168.68 184.677 169.818 185.116 170.72C185.675 171.87 182.659 172.012 179.839 171.907L180.564 175.05C180.786 176.013 181.671 176.682 182.666 176.639L193.487 176.169C194.774 176.114 195.696 174.914 195.409 173.667L187.742 140.424C187.519 139.46 186.635 138.791 185.64 138.835L174.819 139.304C173.532 139.36 172.61 140.56 172.897 141.806L175.624 153.629V153.629Z" fill="#020101"/>
<path d="M173.418 154.977C175.714 153.492 178.518 151.898 179.638 152.157C181.005 152.474 178.469 156.058 176.657 158.378C179.584 159.543 183.465 161.289 184.085 162.563C184.515 163.447 182.837 163.735 180.759 163.774C182.671 164.684 184.34 165.668 184.728 166.467C185.226 167.489 182.897 167.715 180.393 167.679C182.605 168.68 184.677 169.817 185.115 170.72C185.856 172.243 180.328 171.997 177.287 171.753L178.072 175.157C178.294 176.121 179.178 176.79 180.174 176.747L190.994 176.277C192.282 176.222 193.204 175.021 192.916 173.775L185.25 140.532C185.027 139.568 184.143 138.9 183.148 138.942L172.327 139.411C171.039 139.468 170.118 140.668 170.405 141.914L173.418 154.977Z" fill="#656262"/>
<path fill-rule="evenodd" clip-rule="evenodd" d="M182.459 143.347C182.712 144.436 183.359 145.21 183.906 145.074C184.452 144.938 184.691 143.945 184.44 142.856C184.188 141.766 183.54 140.992 182.993 141.128C182.446 141.264 182.207 142.257 182.459 143.347" fill="white"/>
<path fill-rule="evenodd" clip-rule="evenodd" d="M183.725 148.985C183.977 150.074 184.624 150.848 185.171 150.712C185.718 150.576 185.957 149.583 185.705 148.494C185.453 147.404 184.805 146.63 184.259 146.766C183.712 146.902 183.472 147.895 183.725 148.985" fill="white"/>
<path d="M258.454 154.604C266.56 154.617 275.864 151.88 279.786 139.699C281.714 133.708 282.912 129.993 282.977 129.792L282.979 129.783L283.391 128.746H284.576C290.619 128.805 296.803 129.888 303.557 134.2C313.118 140.302 327.458 159.479 337.739 178.078L306.336 196.444L301.287 188.83C301.287 188.83 296.197 195.596 294.787 204.663C293.704 211.596 294.143 216.393 294.143 216.393L243.942 217.152L237.109 190.96L217.927 182.468C221.422 164.678 229.922 146.672 240.419 136.904C245.932 131.774 251.886 130.583 261.446 129.942C260.511 130.642 256.399 133.894 253.231 139.211C248.31 147.468 250.883 154.592 258.454 154.604Z" fill="#E64C3C"/>
<path opacity="0.202962" d="M243.717 217.608C241.799 193.446 229.124 187.744 238.688 160.648" stroke="black" stroke-width="2"/>
<path opacity="0.202962" d="M288.394 171.915L300.042 189.424" stroke="black" stroke-width="2"/>
</g>
<defs>
<filter id="filter0_d" x="96.5308" y="146.994" width="310.62" height="257.998" filterUnits="userSpaceOnUse" color-interpolation-filters="sRGB">
<feFlood flood-opacity="0" result="BackgroundImageFix"/>
<feColorMatrix in="SourceAlpha" type="matrix" values="0 0 0 0 0 0 0 0 0 0 0 0 0 0 0 0 0 0 127 0"/>
<feOffset dy="1"/>
<feGaussianBlur stdDeviation="1"/>
<feColorMatrix type="matrix" values="0 0 0 0 0 0 0 0 0 0 0 0 0 0 0 0 0 0 0.25 0"/>
<feBlend mode="normal" in2="BackgroundImageFix" result="effect1_dropShadow"/>
<feBlend mode="normal" in="SourceGraphic" in2="effect1_dropShadow" result="shape"/>
</filter>
<filter id="filter1_d" x="350.609" y="346.811" width="37.2181" height="63.181" filterUnits="userSpaceOnUse" color-interpolation-filters="sRGB">
<feFlood flood-opacity="0" result="BackgroundImageFix"/>
<feColorMatrix in="SourceAlpha" type="matrix" values="0 0 0 0 0 0 0 0 0 0 0 0 0 0 0 0 0 0 127 0"/>
<feOffset dy="4"/>
<feGaussianBlur stdDeviation="2"/>
<feColorMatrix type="matrix" values="0 0 0 0 0 0 0 0 0 0 0 0 0 0 0 0 0 0 0.25 0"/>
<feBlend mode="normal" in2="BackgroundImageFix" result="effect1_dropShadow"/>
<feBlend mode="normal" in="SourceGraphic" in2="effect1_dropShadow" result="shape"/>
</filter>
<filter id="filter2_d" x="197.223" y="346.811" width="37.2182" height="63.181" filterUnits="userSpaceOnUse" color-interpolation-filters="sRGB">
<feFlood flood-opacity="0" result="BackgroundImageFix"/>
<feColorMatrix in="SourceAlpha" type="matrix" values="0 0 0 0 0 0 0 0 0 0 0 0 0 0 0 0 0 0 127 0"/>
<feOffset dy="4"/>
<feGaussianBlur stdDeviation="2"/>
<feColorMatrix type="matrix" values="0 0 0 0 0 0 0 0 0 0 0 0 0 0 0 0 0 0 0.25 0"/>
<feBlend mode="normal" in2="BackgroundImageFix" result="effect1_dropShadow"/>
<feBlend mode="normal" in="SourceGraphic" in2="effect1_dropShadow" result="shape"/>
</filter>
<filter id="filter3_i" x="196.3" y="147.994" width="170.672" height="205.942" filterUnits="userSpaceOnUse" color-interpolation-filters="sRGB">
<feFlood flood-opacity="0" result="BackgroundImageFix"/>
<feBlend mode="normal" in="SourceGraphic" in2="BackgroundImageFix" result="shape"/>
<feColorMatrix in="SourceAlpha" type="matrix" values="0 0 0 0 0 0 0 0 0 0 0 0 0 0 0 0 0 0 127 0" result="hardAlpha"/>
<feOffset dx="1"/>
<feGaussianBlur stdDeviation="1"/>
<feComposite in2="hardAlpha" operator="arithmetic" k2="-1" k3="1"/>
<feColorMatrix type="matrix" values="0 0 0 0 0 0 0 0 0 0 0 0 0 0 0 0 0 0 0.25 0"/>
<feBlend mode="normal" in2="shape" result="effect1_innerShadow"/>
</filter>
<filter id="filter4_d" x="250.314" y="223.284" width="146.433" height="135.651" filterUnits="userSpaceOnUse" color-interpolation-filters="sRGB">
<feFlood flood-opacity="0" result="BackgroundImageFix"/>
<feColorMatrix in="SourceAlpha" type="matrix" values="0 0 0 0 0 0 0 0 0 0 0 0 0 0 0 0 0 0 127 0"/>
<feOffset dy="1"/>
<feGaussianBlur stdDeviation="2"/>
<feColorMatrix type="matrix" values="0 0 0 0 0 0 0 0 0 0 0 0 0 0 0 0 0 0 0.25 0"/>
<feBlend mode="normal" in2="BackgroundImageFix" result="effect1_dropShadow"/>
<feBlend mode="normal" in="SourceGraphic" in2="effect1_dropShadow" result="shape"/>
</filter>
</defs>
</svg>
