<svg width="24" height="24" viewBox="0 0 24 24" fill="none" xmlns="http://www.w3.org/2000/svg">
<path d="M11.9998 0C5.38314 0 0 5.3832 0 12C0 18.6167 5.38314 24 11.9998 24C18.6169 24 24 18.6167 24 12C24 5.3832 18.6169 0 11.9998 0ZM11.9998 22.4262C6.25122 22.4262 1.5738 17.749 1.5738 12C1.5738 6.25098 6.25122 1.57386 11.9998 1.57386C17.7487 1.57386 22.4261 6.25104 22.4261 12C22.4261 17.749 17.7487 22.4262 11.9998 22.4262Z" fill="black"/>
<path d="M11.9992 5.48297C9.88866 5.48297 8.17188 7.19993 8.17188 9.31055C8.17188 9.74513 8.52414 10.0975 8.95866 10.0975C9.39342 10.0975 9.74567 9.74507 9.74567 9.31055C9.74567 8.06795 10.7566 7.05683 11.9992 7.05683C13.2424 7.05683 14.2532 8.06795 14.2532 9.31055C14.2532 10.5534 13.2422 11.5645 11.9992 11.5645C11.5647 11.5645 11.2124 11.9169 11.2124 12.3514V15.0924C11.2124 15.527 11.5647 15.8793 11.9992 15.8793C12.4337 15.8793 12.7862 15.527 12.7862 15.0924V13.0561C14.5205 12.6923 15.827 11.1514 15.827 9.31049C15.827 7.19993 14.11 5.48297 11.9992 5.48297Z" fill="black"/>
<path d="M12.0009 16.4243C11.4557 16.4243 11.013 16.8666 11.013 17.412C11.013 17.9575 11.4557 18.3999 12.0009 18.3999C12.5465 18.3999 12.9883 17.9575 12.9883 17.412C12.9883 16.8666 12.5465 16.4243 12.0009 16.4243Z" fill="black"/>
</svg>
