<svg width="81" height="77" viewBox="0 0 81 77" fill="none" xmlns="http://www.w3.org/2000/svg">
<path d="M80.0606 42.2052C79.3404 34.9609 76.104 28.1314 70.9473 22.9745C66.5404 18.5678 61.1464 15.7359 55.4708 14.4767V10.496C57.7889 9.91927 59.512 7.82095 59.512 5.32688C59.512 2.38957 57.1224 0 54.1851 0H42.9047C39.9674 0 37.5778 2.38957 37.5778 5.32688C37.5778 7.8208 39.3009 9.91911 41.6189 10.496V14.4879C35.9606 15.7524 30.5846 18.5803 26.1902 22.9747C25.2286 23.9363 24.3418 24.9451 23.5301 25.9936C23.4907 25.9906 23.4514 25.9876 23.4113 25.9876H12.2466C11.3815 25.9876 10.6799 26.6891 10.6799 27.5544C10.6799 28.4197 11.3815 29.1211 12.2466 29.1211H21.3982C20.2495 31.0443 19.3232 33.0639 18.6182 35.143H1.56673C0.701581 35.143 0 35.8444 0 36.7097C0 37.575 0.701581 38.2764 1.56673 38.2764H17.7329C17.2813 40.2585 17.0222 42.2757 16.9553 44.2985H10.0271C9.16191 44.2985 8.46033 44.9999 8.46033 45.8652C8.46033 46.7305 9.16191 47.4319 10.0271 47.4319H17.0053C17.1375 49.4599 17.4635 51.4772 17.9835 53.454H7.83364C6.96849 53.454 6.26691 54.1554 6.26691 55.0207C6.26691 55.886 6.96849 56.5874 7.83364 56.5874H18.9834C20.5204 60.6532 22.9223 64.464 26.1902 67.7319C31.352 72.8936 38.1885 76.1308 45.4403 76.8472C46.4753 76.9494 47.511 77 48.5454 77C54.6591 77 60.6951 75.2307 65.8167 71.8954C66.5418 71.4232 66.7469 70.4526 66.2747 69.7276C65.8024 69.0025 64.8318 68.7974 64.1068 69.2696C52.8957 76.5701 37.8813 74.9916 28.4059 65.5162C17.2881 54.3984 17.2881 36.3085 28.4059 25.1905C39.5235 14.0728 57.6135 14.0728 68.7314 25.1905C78.1943 34.6535 79.7814 49.6551 72.5051 60.8607C72.0338 61.5864 72.2401 62.5568 72.9657 63.0279C73.6917 63.4992 74.6618 63.2929 75.1329 62.5671C79.0206 56.5799 80.7706 49.3487 80.0606 42.2052ZM40.7113 5.32703C40.7113 4.11752 41.6952 3.13361 42.9047 3.13361H54.1851C55.3947 3.13361 56.3786 4.11752 56.3786 5.32703C56.3786 6.53655 55.3947 7.52045 54.1851 7.52045H53.9041H43.1856H42.9047C41.6952 7.52045 40.7113 6.53639 40.7113 5.32703ZM44.7523 13.9492V10.6539H52.3373V13.9436C49.8187 13.644 47.2705 13.6459 44.7523 13.9492Z" fill="#FAFAFA"/>
<path d="M69.84 64.556C69.4264 64.556 69.0238 64.7237 68.7325 65.0151C68.4395 65.3065 68.2733 65.7107 68.2733 66.1227C68.2733 66.5348 68.4395 66.939 68.7325 67.2304C69.0238 67.5234 69.4266 67.6894 69.84 67.6894C70.2521 67.6894 70.6547 67.5234 70.9477 67.2304C71.2391 66.939 71.4067 66.5348 71.4067 66.1227C71.4067 65.7107 71.2393 65.3065 70.9477 65.0151C70.6547 64.7237 70.2519 64.556 69.84 64.556Z" fill="#FAFAFA"/>
<path d="M48.5689 20.5479C35.1674 20.5479 24.2644 31.4508 24.2644 44.8524C24.2644 58.254 35.1674 69.1569 48.5689 69.1569C61.9704 69.1569 72.8734 58.254 72.8734 44.8524C72.8734 31.4508 61.9704 20.5479 48.5689 20.5479ZM48.5689 66.0235C36.8951 66.0235 27.3979 56.5261 27.3979 44.8524C27.3979 33.1787 36.8951 23.6814 48.5689 23.6814C60.2428 23.6814 69.7399 33.1787 69.7399 44.8524C69.7399 56.5261 60.2428 66.0235 48.5689 66.0235Z" fill="#FAFAFA"/>
<path d="M58.4795 32.7261L50.7195 40.4859C50.0706 40.165 49.3406 39.9838 48.569 39.9838C47.7972 39.9838 47.0675 40.165 46.4185 40.4859L42.9456 37.0129C42.3336 36.4011 41.3419 36.4011 40.7297 37.0129C40.1179 37.6248 40.1179 38.6168 40.7297 39.2286L44.2027 42.7016C43.8817 43.3505 43.7006 44.0805 43.7006 44.8521C43.7006 47.5365 45.8844 49.7205 48.569 49.7205C51.2536 49.7205 53.4375 47.5365 53.4375 44.8521C53.4375 44.0805 53.2562 43.3505 52.9353 42.7016L60.4675 35.1694L60.6952 34.9417C61.307 34.3299 61.307 33.3379 60.6952 32.7261C60.0834 32.1143 59.0916 32.1143 58.4795 32.7261ZM48.569 46.5872C47.6124 46.5872 46.834 45.8089 46.834 44.8522C46.834 43.8956 47.6124 43.1172 48.569 43.1172C49.5257 43.1172 50.304 43.8956 50.304 44.8522C50.304 45.8089 49.5257 46.5872 48.569 46.5872Z" fill="#FAFAFA"/>
<path d="M65.3193 43.3047H63.8677C63.0026 43.3047 62.301 44.0061 62.301 44.8714C62.301 45.7367 63.0026 46.4381 63.8677 46.4381H65.3193C66.1844 46.4381 66.886 45.7367 66.886 44.8714C66.886 44.0061 66.1844 43.3047 65.3193 43.3047Z" fill="#FAFAFA"/>
<path d="M33.2686 43.2668H31.8172C30.9521 43.2668 30.2505 43.9682 30.2505 44.8335C30.2505 45.6988 30.9521 46.4002 31.8172 46.4002H33.2686C34.1337 46.4002 34.8353 45.6988 34.8353 44.8335C34.8353 43.9682 34.1337 43.2668 33.2686 43.2668Z" fill="#FAFAFA"/>
<path d="M48.5875 31.1192C49.4526 31.1192 50.1542 30.4178 50.1542 29.5525V28.1011C50.1542 27.2358 49.4526 26.5344 48.5875 26.5344C47.7223 26.5344 47.0208 27.2358 47.0208 28.1011V29.5525C47.0208 30.4178 47.7223 31.1192 48.5875 31.1192Z" fill="#FAFAFA"/>
<path d="M48.5491 58.5854C47.684 58.5854 46.9824 59.2868 46.9824 60.1521V61.6035C46.9824 62.4688 47.684 63.1702 48.5491 63.1702C49.4143 63.1702 50.1158 62.4688 50.1158 61.6035V60.1521C50.1158 59.2868 49.4143 58.5854 48.5491 58.5854Z" fill="#FAFAFA"/>
<path d="M1.5667 52.9526C1.15466 52.9526 0.750451 53.1203 0.459044 53.4117C0.167637 53.7031 0 54.1073 0 54.5193C0 54.933 0.167481 55.3356 0.459044 55.627C0.750608 55.9184 1.15466 56.086 1.5667 56.086C1.97875 56.086 2.38296 55.9184 2.67421 55.627C2.96561 55.3356 3.13341 54.9314 3.13341 54.5193C3.13341 54.1073 2.96577 53.7031 2.67421 53.4117C2.38296 53.1203 1.97875 52.9526 1.5667 52.9526Z" fill="#FAFAFA"/>
</svg>
