<svg width="96" height="93" viewBox="0 0 96 93" fill="none" xmlns="http://www.w3.org/2000/svg">
<path d="M83.583 77.2592C83.088 77.2592 82.6061 77.4598 82.2576 77.8085C81.9069 78.1573 81.708 78.641 81.708 79.1342C81.708 79.6273 81.9069 80.111 82.2576 80.4598C82.6061 80.8104 83.0882 81.0091 83.583 81.0091C84.0761 81.0091 84.558 80.8104 84.9086 80.4598C85.2574 80.111 85.458 79.6273 85.458 79.1342C85.458 78.641 85.2576 78.1573 84.9086 77.8085C84.558 77.4598 84.0759 77.2592 83.583 77.2592Z" fill="#0F144C"/>
<path d="M58.1262 24.5913C42.0876 24.5913 29.0391 37.6396 29.0391 53.6784C29.0391 69.7172 42.0876 82.7655 58.1262 82.7655C74.1648 82.7655 87.2133 69.7172 87.2133 53.6784C87.2133 37.6396 74.1648 24.5913 58.1262 24.5913ZM58.1262 79.0155C44.1552 79.0155 32.7891 67.6492 32.7891 53.6784C32.7891 39.7076 44.1552 28.3414 58.1262 28.3414C72.0972 28.3414 83.4632 39.7076 83.4632 53.6784C83.4632 67.6492 72.0972 79.0155 58.1262 79.0155Z" fill="#0F144C"/>
<path d="M69.987 39.1661L60.7 48.4529C59.9234 48.0689 59.0498 47.852 58.1264 47.852C57.2027 47.852 56.3293 48.0689 55.5527 48.4529L51.3963 44.2965C50.6639 43.5643 49.477 43.5643 48.7445 44.2965C48.0123 45.0287 48.0123 46.216 48.7445 46.9482L52.9008 51.1046C52.5166 51.8812 52.2999 52.7548 52.2999 53.6782C52.2999 56.8909 54.9135 59.5047 58.1264 59.5047C61.3392 59.5047 63.9528 56.8909 63.9528 53.6782C63.9528 52.7548 63.7359 51.8812 63.3519 51.1046L72.3662 42.0902L72.6387 41.8178C73.3709 41.0856 73.3709 39.8983 72.6387 39.1661C71.9065 38.4339 70.7196 38.4339 69.987 39.1661ZM58.1264 55.7548C56.9815 55.7548 56.0499 54.8233 56.0499 53.6784C56.0499 52.5335 56.9815 51.602 58.1264 51.602C59.2712 51.602 60.2028 52.5335 60.2028 53.6784C60.2028 54.8233 59.2712 55.7548 58.1264 55.7548Z" fill="#0F144C"/>
<path d="M78.1727 51.8263H76.4355C75.4002 51.8263 74.5605 52.6657 74.5605 53.7013C74.5605 54.7369 75.4002 55.5763 76.4355 55.5763H78.1727C79.2081 55.5763 80.0477 54.7369 80.0477 53.7013C80.0477 52.6657 79.2081 51.8263 78.1727 51.8263Z" fill="#0F144C"/>
<path d="M39.8151 51.7806H38.0781C37.0427 51.7806 36.2031 52.62 36.2031 53.6556C36.2031 54.6911 37.0427 55.5306 38.0781 55.5306H39.8151C40.8505 55.5306 41.6901 54.6911 41.6901 53.6556C41.6901 52.62 40.8505 51.7806 39.8151 51.7806Z" fill="#0F144C"/>
<path d="M58.1484 37.2428C59.1838 37.2428 60.0234 36.4034 60.0234 35.3679V33.6309C60.0234 32.5953 59.1838 31.7559 58.1484 31.7559C57.1131 31.7559 56.2734 32.5953 56.2734 33.6309V35.3679C56.2734 36.4034 57.1131 37.2428 58.1484 37.2428Z" fill="#0F144C"/>
<path d="M58.1025 70.114C57.0672 70.114 56.2275 70.9534 56.2275 71.989V73.726C56.2275 74.7615 57.0672 75.601 58.1025 75.601C59.1379 75.601 59.9775 74.7615 59.9775 73.726V71.989C59.9775 70.9534 59.1379 70.114 58.1025 70.114Z" fill="#0F144C"/>
<path d="M1.875 63.3727C1.38187 63.3727 0.898124 63.5733 0.549374 63.9221C0.200625 64.2708 0 64.7546 0 65.2477C0 65.7427 0.200437 66.2246 0.549374 66.5733C0.898311 66.9221 1.38187 67.1227 1.875 67.1227C2.36812 67.1227 2.85187 66.9221 3.20043 66.5733C3.54918 66.2246 3.75 65.7408 3.75 65.2477C3.75 64.7546 3.54937 64.2708 3.20043 63.9221C2.85187 63.5733 2.36812 63.3727 1.875 63.3727Z" fill="#0F144C"/>
<path fill-rule="evenodd" clip-rule="evenodd" d="M58 90C77.8823 90 94 73.8823 94 54C94 34.1177 77.8823 18 58 18C38.1177 18 22 34.1177 22 54C22 73.8823 38.1177 90 58 90ZM58 83C74.0163 83 87 70.0163 87 54C87 37.9837 74.0163 25 58 25C41.9837 25 29 37.9837 29 54C29 70.0163 41.9837 83 58 83Z" fill="#FDC602"/>
<rect x="51" y="9" width="14" height="9" fill="#FDC602"/>
<rect x="48" y="2" width="19" height="9" fill="#FDC602"/>
<path d="M95.8148 50.5102C94.9529 41.8405 91.0796 33.6671 84.9082 27.4954C79.6341 22.2215 73.1788 18.8324 66.3863 17.3254V12.5614C69.1606 11.8712 71.2227 9.35995 71.2227 6.37509C71.2227 2.85979 68.3629 0 64.8476 0H51.3474C47.8321 0 44.9723 2.85979 44.9723 6.37509C44.9723 9.35976 47.0345 11.871 49.8086 12.5614V17.3388C43.0369 18.8521 36.603 22.2365 31.3439 27.4956C30.193 28.6465 29.1317 29.8538 28.1603 31.1086C28.1132 31.105 28.0662 31.1015 28.0182 31.1015H14.6565C13.6211 31.1015 12.7815 31.9409 12.7815 32.9765C12.7815 34.0121 13.6211 34.8515 14.6565 34.8515H25.6089C24.2342 37.1531 23.1256 39.5702 22.2819 42.0584H1.87503C0.839637 42.0584 0 42.8978 0 43.9334C0 44.969 0.839637 45.8084 1.87503 45.8084H21.2223C20.6819 48.1805 20.3718 50.5946 20.2917 53.0155H12.0002C10.9648 53.0155 10.1251 53.8549 10.1251 54.8905C10.1251 55.9261 10.9648 56.7655 12.0002 56.7655H20.3515C20.5098 59.1926 20.9 61.6068 21.5223 63.9726H9.37514C8.33975 63.9726 7.50011 64.812 7.50011 65.8476C7.50011 66.8832 8.33975 67.7226 9.37514 67.7226H22.719C24.5584 72.5885 27.433 77.1491 31.3439 81.0601C37.5214 87.2375 45.7032 91.1117 54.382 91.9692C55.6206 92.0914 56.8602 92.152 58.0981 92.152C65.4148 92.152 72.6386 90.0345 78.768 86.0429C79.6358 85.4778 79.8812 84.3162 79.3161 83.4485C78.751 82.5807 77.5894 82.3353 76.7216 82.9004C63.3045 91.6375 45.3355 89.7484 33.9956 78.4084C20.69 65.1028 20.69 43.4532 33.9956 30.1474C47.3009 16.8421 68.9506 16.8421 82.2563 30.1474C93.5813 41.4726 95.4807 59.4262 86.7725 72.8368C86.2085 73.7053 86.4554 74.8667 87.3238 75.4305C88.1927 75.9945 89.3537 75.7475 89.9175 74.879C94.5702 67.7136 96.6646 59.0594 95.8148 50.5102ZM48.7224 6.37528C48.7224 4.92776 49.8999 3.75024 51.3474 3.75024H64.8476C66.2952 3.75024 67.4727 4.92776 67.4727 6.37528C67.4727 7.8228 66.2952 9.00032 64.8476 9.00032H64.5113H51.6836H51.3474C49.8999 9.00032 48.7224 7.82261 48.7224 6.37528ZM53.5587 16.6941V12.7504H62.6362V16.6874C59.6219 16.3289 56.5724 16.3311 53.5587 16.6941Z" fill="#0F144C"/>
</svg>
