<svg width="111" height="92" viewBox="0 0 111 92" fill="none" xmlns="http://www.w3.org/2000/svg">
<rect x="70" y="77.5957" width="39.9067" height="17.2325" transform="rotate(-43.7492 70 77.5957)" fill="#2AB0DB"/>
<rect x="11.9072" y="50" width="39.9067" height="17.2325" transform="rotate(43.7057 11.9072 50)" fill="#2AB0DB"/>
<path d="M110.524 59.2868L102.132 50.9632C101.023 49.8626 99.5472 49.2561 97.9779 49.2561C96.826 49.2561 95.7256 49.5839 94.7825 50.1927L87.6191 43.0875L90.1025 40.6244C92.7505 37.9948 92.7505 33.7164 90.1008 31.0853C88.958 29.9539 87.4812 29.2746 85.8919 29.1383C86.577 26.8431 86.0083 24.2535 84.1857 22.4438C83.1216 21.3884 81.7658 20.7263 80.2974 20.5308C80.6022 19.7577 80.7616 18.9267 80.7616 18.0715C80.7616 16.2698 80.054 14.5763 78.7699 13.3039C77.5862 12.1297 76.071 11.4801 74.5202 11.3547C75.1791 9.0737 74.6048 6.51227 72.7971 4.71749C71.5128 3.44355 69.8049 2.74185 67.9879 2.74185C66.6496 2.74185 65.3708 3.12421 64.2761 3.83494L63.8293 2.99281C62.7894 1.03309 60.6053 -0.0797826 58.3931 0.22709L48.1426 1.64425C46.9391 0.581703 45.4051 0 43.7802 0C42.0235 0 40.3717 0.678689 39.1288 1.91177C37.9457 3.08657 37.3105 4.60201 37.2206 6.14325C36.7659 6.04605 36.2981 5.99466 35.822 5.99466C34.0653 5.99466 32.4139 6.67313 31.1719 7.90513V7.90535C29.3734 9.68938 28.8383 12.2577 29.5631 14.5101C28.1515 14.6783 26.7848 15.2965 25.7039 16.3687C25.7039 16.3687 25.7039 16.3687 25.7039 16.369C24.0129 18.0463 23.4377 20.4177 23.9775 22.5677C22.4725 22.6862 21.0011 23.3135 19.8525 24.4526V24.4528C17.2887 26.996 17.2887 31.1339 19.8525 33.6773L22.4142 36.2183C22.6967 36.4985 22.9996 36.7458 23.3167 36.9643C23.6012 38.8334 24.3489 40.6009 25.4871 42.1069L16.2181 51.3025C13.9424 49.8385 10.8615 50.0944 8.8683 52.0717L0.478048 60.3952C-0.549135 61.4143 0.192093 63.1486 1.62772 63.1486C2.04375 63.1486 2.46 62.9912 2.7774 62.6764L11.1687 54.3528C12.1916 53.3382 13.8557 53.3377 14.8786 54.3528L20.0992 59.5313C20.7342 60.161 21.7638 60.161 22.3986 59.5313C23.0336 58.9012 23.0336 57.8802 22.3986 57.2503L18.6103 53.4926L28.8554 43.3284C29.4904 42.6985 29.4902 41.6774 28.8554 41.0478C28.0143 40.2134 27.3734 39.2134 26.963 38.1234C26.9971 38.1238 27.0311 38.1257 27.0651 38.1257C28.7492 38.1257 30.4331 37.4898 31.7152 36.2183C32.8189 35.1235 33.4808 33.7078 33.6148 32.1833C34.1542 32.3229 34.7146 32.3962 35.2867 32.3962C37.0432 32.3962 38.6946 31.7177 39.9366 30.4855C40.9872 29.4434 41.6066 28.1333 41.796 26.7751C42.4933 27.02 43.2349 27.148 43.9963 27.148C45.7528 27.148 47.4041 26.4695 48.6462 25.2373C50.9156 22.9862 51.1747 19.4863 49.4266 16.9483C50.5976 16.6722 51.6722 16.0812 52.5448 15.2157C52.565 15.1957 52.5832 15.1737 52.6032 15.1535C52.9028 15.1316 53.203 15.0967 53.5033 15.0447L57.2708 14.3922C57.7354 14.4146 58.1939 14.2419 58.523 13.9024L58.5525 13.8731C58.5527 13.8729 58.5529 13.8727 58.5531 13.8725L60.1342 12.3041L64.9454 7.53203C64.9619 7.5159 64.9779 7.49934 64.9935 7.48235L65.4811 6.99893C66.1512 6.334 67.0418 5.96799 67.9888 5.96799C68.9371 5.96799 69.8283 6.334 70.498 6.99828C71.8803 8.37093 71.8805 10.6029 70.4986 11.9736L69.1567 13.3045C68.5217 13.9344 68.5217 14.9557 69.1567 15.5853C69.7919 16.2154 70.8212 16.2152 71.4562 15.5855L71.4617 15.5802C72.845 14.2142 75.0908 14.2161 76.472 15.586C77.1417 16.2498 77.5107 17.1326 77.5107 18.0721C77.5107 19.0119 77.1417 19.8955 76.4716 20.5602L74.582 22.4348C74.5783 22.4385 74.5749 22.4419 74.5714 22.4453C73.9373 23.0759 73.9381 24.0965 74.5733 24.7257C75.2083 25.3547 76.2373 25.3545 76.8723 24.7251L76.8785 24.7188C77.5443 24.0597 78.4323 23.6965 79.3799 23.6965C80.3284 23.6965 81.2188 24.0616 81.8868 24.7244C83.2691 26.0971 83.2693 28.329 81.8872 29.7L80.4889 31.087C79.8541 31.7167 79.8539 32.7373 80.4884 33.3674C81.1228 33.997 82.1519 33.9979 82.7873 33.3691C83.4583 32.705 84.3494 32.3392 85.2961 32.3392C86.2429 32.3392 87.1339 32.705 87.8029 33.3674C89.185 34.7398 89.185 36.9731 87.8036 38.3449L84.1889 41.9301C84.1829 41.9359 84.1761 41.9409 84.1703 41.9469C84.1642 41.9529 84.1592 41.9594 84.1534 41.9654L63.2845 62.6639C61.8678 64.0692 59.9844 64.8432 57.9815 64.8432C55.9787 64.8432 54.0962 64.0695 52.6801 62.6639L52.3853 62.3714C51.7503 61.7418 50.7207 61.7418 50.0859 62.3714L38.8242 73.5423L27.0224 61.8358C26.3874 61.2061 25.3579 61.2061 24.7231 61.8358C24.0881 62.4658 24.0881 63.4869 24.7231 64.1168L37.9568 77.2437C38.9796 78.2583 38.9796 79.909 37.9568 80.9233L29.565 89.2467C28.93 89.8768 28.93 90.8979 29.565 91.5278C29.8824 91.8426 30.2987 92 30.7147 92C31.1307 92 31.547 91.8426 31.8644 91.5278L40.2557 83.2041C42.2489 81.227 42.5069 78.1712 41.0314 75.914L51.2822 65.746C53.1787 67.2513 55.5165 68.0687 57.9808 68.0687C60.8525 68.0687 63.5525 66.9593 65.583 64.9449L85.32 45.3689L92.3923 52.3842L72.1801 72.4333L67.9634 68.2506C67.3284 67.621 66.2989 67.621 65.6641 68.2506C65.0291 68.8807 65.0291 69.9017 65.6641 70.5316L69.9718 74.8046C69.3574 75.7405 69.0268 76.8323 69.0268 77.9755C69.0268 79.532 69.638 80.9954 70.7477 82.0962L79.1391 90.42C79.7743 91.0499 80.8036 91.0497 81.4384 90.42C82.0734 89.79 82.0734 88.7689 81.4384 88.1393L73.0471 79.8152C72.5517 79.3238 72.2788 78.6705 72.2788 77.9755C72.2788 77.2804 72.5517 76.6269 73.0471 76.1355L96.1238 53.2451C96.6194 52.7535 97.278 52.4827 97.9787 52.4827C98.6794 52.4827 99.3383 52.7535 99.8336 53.2451L108.225 61.5687C108.86 62.1983 109.89 62.1983 110.524 61.5687C111.159 60.9379 111.159 59.9169 110.524 59.2868ZM41.4297 4.19235C42.0115 3.61516 42.7719 3.28184 43.5866 3.23539C43.5597 3.26872 43.5306 3.29968 43.5051 3.33409C42.942 4.08805 42.7133 5.01383 42.8614 5.94025L43.1426 7.70106C43.52 10.0653 44.8093 12.1336 46.7726 13.5252C46.9283 13.6355 47.0872 13.7389 47.2481 13.8387C46.6068 13.7138 46.0171 13.4039 45.5445 12.9342L43.2818 10.6911L41.4216 8.84597C40.1358 7.55934 40.1384 5.47446 41.4297 4.19235ZM29.4159 33.937C28.1199 35.2226 26.0111 35.2228 24.7148 33.937L22.1532 31.3963C20.8572 30.1105 20.8572 28.0187 22.1532 26.733V26.7332C23.4483 25.4483 25.5554 25.4478 26.8514 26.7304L28.4613 28.3273L29.4159 29.2742C30.0437 29.8969 30.3895 30.7247 30.3895 31.6055C30.3895 32.4865 30.0437 33.3143 29.4159 33.937ZM37.637 28.2045C37.0092 28.8273 36.1745 29.1701 35.2865 29.1701C34.3987 29.1701 33.5638 28.8271 32.936 28.2043L30.7607 26.0465L29.1535 24.4522C29.1518 24.4504 29.1499 24.4487 29.1481 24.447L28.0043 23.3124C26.7083 22.0266 26.7083 19.9349 28.0043 18.6491V18.6493C29.2999 17.3642 31.4076 17.3638 32.7038 18.6478L37.6379 23.5419C38.9328 24.8278 38.9328 26.9192 37.637 28.2045ZM46.3466 22.9563C45.7188 23.5791 44.8839 23.9219 43.9961 23.9219C43.1083 23.9219 42.2734 23.5789 41.6456 22.9561L39.9375 21.2619C39.937 21.2615 39.9366 21.2611 39.9361 21.2606L35.0042 16.3685C35.0019 16.3662 34.9993 16.364 34.9969 16.3617L33.4719 14.849C32.1759 13.5632 32.1759 11.4715 33.4719 10.1857V10.1859C34.7679 8.90016 36.8767 8.90016 38.1729 10.1859L39.1136 11.119C39.1193 11.1246 39.1245 11.1306 39.1301 11.1362L40.9137 12.9043L46.3466 18.2932C47.6424 19.579 47.6424 21.6707 46.3466 22.9563ZM60.6539 7.22645L56.615 11.2311L52.9433 11.8672C51.4322 12.1291 49.9114 11.7859 48.6627 10.901C47.4139 10.0158 46.594 8.70038 46.354 7.19677L46.0728 5.43575C46.0596 5.35317 46.0899 5.29145 46.1177 5.25446C46.1454 5.21726 46.1959 5.1706 46.2796 5.15898L58.8424 3.42248C58.9371 3.40914 59.0314 3.40291 59.1253 3.40291C59.8823 3.40291 60.5932 3.81924 60.9522 4.49578L61.7986 6.09078L60.6539 7.22645Z" fill="#0F144C"/>
</svg>
