<svg width="87" height="73" viewBox="0 0 87 73" fill="none" xmlns="http://www.w3.org/2000/svg">
<path d="M86.6267 46.5205L80.0497 39.9892C79.1798 39.1256 78.0235 38.6498 76.7935 38.6498C75.8907 38.6498 75.0281 38.9069 74.289 39.3846L68.6744 33.8094L70.6209 31.8767C72.6963 29.8133 72.6963 26.4562 70.6195 24.3917C69.7239 23.5039 68.5664 22.9709 67.3207 22.8639C67.8576 21.0629 67.4119 19.0309 65.9834 17.611C65.1494 16.7828 64.0867 16.2633 62.9358 16.1099C63.1747 15.5032 63.2996 14.8512 63.2996 14.1801C63.2996 12.7664 62.745 11.4376 61.7386 10.4392C60.8108 9.51783 59.6232 9.00807 58.4077 8.90969C58.9241 7.11985 58.474 5.10998 57.0572 3.70167C56.0506 2.70205 54.7119 2.15145 53.2878 2.15145C52.2389 2.15145 51.2365 2.45147 50.3786 3.00916L50.0284 2.34837C49.2133 0.810631 47.5015 -0.0626029 45.7676 0.17819L37.7334 1.29019C36.7901 0.456444 35.5878 0 34.3142 0C32.9373 0 31.6427 0.532546 30.6685 1.50011C29.7413 2.42194 29.2434 3.61106 29.1729 4.82042C28.8165 4.74415 28.4498 4.70382 28.0767 4.70382C26.6998 4.70382 25.4055 5.2362 24.432 6.20292V6.20309C23.0224 7.60296 22.603 9.61823 23.1711 11.3856C22.0647 11.5176 20.9935 12.0027 20.1463 12.8441C20.1463 12.8441 20.1463 12.8441 20.1463 12.8442C18.8209 14.1604 18.3701 16.0211 18.7932 17.7082C17.6136 17.8012 16.4603 18.2934 15.5601 19.1872V19.1874C13.5506 21.1829 13.5506 24.4298 15.5601 26.4255L17.5679 28.4194C17.7893 28.6392 18.0267 28.8333 18.2753 29.0047C18.4982 30.4714 19.0843 31.8583 19.9764 33.04L12.7115 40.2555C10.9279 39.1067 8.51309 39.3075 6.95083 40.8591L0.374687 47.3902C-0.430403 48.1899 0.15056 49.5508 1.27578 49.5508C1.60186 49.5508 1.92811 49.4273 2.17688 49.1802L8.75387 42.6489C9.55556 41.8528 10.8599 41.8525 11.6616 42.6489L15.7535 46.7124C16.2512 47.2065 17.0581 47.2065 17.5557 46.7124C18.0534 46.218 18.0534 45.4168 17.5557 44.9226L14.5864 41.974L22.6164 33.9984C23.1141 33.5042 23.114 32.703 22.6164 32.2089C21.9571 31.5542 21.4548 30.7696 21.1332 29.9142C21.1599 29.9146 21.1865 29.9161 21.2132 29.9161C22.5332 29.9161 23.853 29.4171 24.8579 28.4194C25.7229 27.5603 26.2417 26.4495 26.3467 25.2533C26.7695 25.3628 27.2087 25.4203 27.6572 25.4203C29.0339 25.4203 30.3282 24.8879 31.3016 23.9211C32.1251 23.1033 32.6106 22.0754 32.7591 21.0096C33.3055 21.2018 33.8868 21.3022 34.4836 21.3022C35.8603 21.3022 37.1546 20.7698 38.1281 19.8029C39.9068 18.0366 40.1099 15.2903 38.7398 13.2988C39.6576 13.0821 40.4999 12.6184 41.1838 11.9393C41.1996 11.9236 41.2139 11.9064 41.2295 11.8905C41.4643 11.8733 41.6997 11.846 41.935 11.8051L44.8879 11.2932C45.2521 11.3107 45.6114 11.1752 45.8694 10.9088L45.8925 10.8858C45.8927 10.8856 45.8928 10.8855 45.893 10.8853L47.1322 9.65468L50.9031 5.91015C50.9161 5.8975 50.9286 5.8845 50.9409 5.87117L51.323 5.49184C51.8483 4.9701 52.5463 4.6829 53.2885 4.6829C54.0317 4.6829 54.7303 4.9701 55.2552 5.49134C56.3386 6.56841 56.3388 8.31977 55.2557 9.39533L54.2039 10.4397C53.7062 10.9339 53.7062 11.7353 54.2039 12.2293C54.7018 12.7237 55.5085 12.7236 56.0062 12.2295L56.0105 12.2253C57.0948 11.1534 58.855 11.155 59.9375 12.2298C60.4624 12.7507 60.7516 13.4434 60.7516 14.1807C60.7516 14.918 60.4624 15.6114 59.9372 16.133L58.4562 17.6039C58.4533 17.6068 58.4506 17.6095 58.4478 17.6122C57.9508 18.1069 57.9515 18.9078 58.4494 19.4015C58.9471 19.8951 59.7535 19.8949 60.2512 19.401L60.2562 19.3961C60.778 18.8789 61.474 18.5939 62.2167 18.5939C62.9601 18.5939 63.658 18.8804 64.1815 19.4005C65.2649 20.4776 65.2651 22.2289 64.1819 23.3046L63.0859 24.393C62.5883 24.8871 62.5882 25.6879 63.0855 26.1824C63.5827 26.6764 64.3893 26.6771 64.8874 26.1837C65.4133 25.6626 66.1117 25.3756 66.8537 25.3756C67.5958 25.3756 68.2941 25.6626 68.8185 26.1824C69.9018 27.2593 69.9018 29.0116 68.819 30.088L65.9859 32.9013C65.9812 32.9058 65.9759 32.9097 65.9713 32.9144C65.9665 32.9192 65.9626 32.9242 65.9581 32.929L49.6014 49.1704C48.4909 50.2732 47.0148 50.8805 45.4449 50.8805C43.8752 50.8805 42.3997 50.2733 41.2898 49.1704L41.0587 48.9409C40.561 48.4469 39.7541 48.4469 39.2565 48.9409L30.4298 57.7064L21.1797 48.5206C20.682 48.0265 19.8751 48.0265 19.3776 48.5206C18.8799 49.015 18.8799 49.8162 19.3776 50.3105L29.7499 60.6107C30.5516 61.4069 30.5516 62.7021 29.7499 63.4981L23.1726 70.0292C22.6749 70.5236 22.6749 71.3248 23.1726 71.819C23.4214 72.066 23.7476 72.1896 24.0737 72.1896C24.3998 72.1896 24.726 72.066 24.9748 71.819L31.5518 65.2877C33.114 63.7363 33.3162 61.3385 32.1597 59.5674L40.1942 51.5888C41.6806 52.77 43.5129 53.4114 45.4444 53.4114C47.6952 53.4114 49.8114 52.5409 51.4029 50.9603L66.8724 35.5996L72.4156 41.1043L56.5736 56.8362L53.2686 53.5542C52.7709 53.0601 51.964 53.0601 51.4664 53.5542C50.9687 54.0486 50.9687 54.8498 51.4664 55.344L54.8428 58.6969C54.3612 59.4312 54.1021 60.2879 54.1021 61.185C54.1021 62.4063 54.5811 63.5546 55.4509 64.4184L62.0279 70.9498C62.5258 71.4441 63.3326 71.4439 63.8301 70.9498C64.3278 70.4554 64.3278 69.6542 63.8301 69.1602L57.2531 62.6285C56.8649 62.243 56.6509 61.7303 56.6509 61.185C56.6509 60.6396 56.8649 60.1268 57.2531 59.7412L75.3403 41.7798C75.7287 41.394 76.2449 41.1816 76.7941 41.1816C77.3433 41.1816 77.8597 41.394 78.248 41.7798L84.825 48.311C85.3227 48.8051 86.1296 48.8051 86.6272 48.311C87.1244 47.8161 87.1244 47.0149 86.6267 46.5205ZM32.4719 3.2896C32.928 2.8367 33.5239 2.57516 34.1624 2.53871C34.1414 2.56486 34.1186 2.58916 34.0986 2.61616C33.6573 3.20776 33.478 3.9342 33.5941 4.66113L33.8144 6.04278C34.1103 7.89792 35.1208 9.52087 36.6596 10.6128C36.7816 10.6994 36.9062 10.7805 37.0323 10.8588C36.5296 10.7608 36.0674 10.5176 35.697 10.1491L33.9235 8.38896L32.4656 6.94116C31.4578 5.93158 31.4598 4.29564 32.4719 3.2896ZM23.0557 26.6293C22.0399 27.6381 20.3871 27.6383 19.3711 26.6293L17.3633 24.6357C16.3475 23.6268 16.3475 21.9854 17.3633 20.9765V20.9767C18.3784 19.9685 20.0299 19.9681 21.0457 20.9745L22.3075 22.2276L23.0557 22.9705C23.5478 23.4592 23.8188 24.1087 23.8188 24.7999C23.8188 25.4912 23.5478 26.1407 23.0557 26.6293ZM29.4993 22.1312C29.0072 22.6199 28.353 22.8889 27.657 22.8889C26.9612 22.8889 26.3068 22.6197 25.8147 22.131L24.1097 20.4379L22.8501 19.1869C22.8487 19.1855 22.8472 19.1842 22.8458 19.1828L21.9493 18.2925C20.9335 17.2836 20.9335 15.6423 21.9493 14.6334V14.6336C22.9648 13.6252 24.6168 13.6248 25.6327 14.6324L29.5 18.4726C30.5149 19.4816 30.5149 21.1227 29.4993 22.1312ZM36.3257 18.0131C35.8336 18.5018 35.1793 18.7707 34.4834 18.7707C33.7876 18.7707 33.1332 18.5016 32.6411 18.0129L31.3023 16.6836C31.302 16.6832 31.3016 16.6829 31.3013 16.6826L27.4358 12.8439C27.4339 12.842 27.4318 12.8403 27.43 12.8385L26.2347 11.6516C25.219 10.6427 25.219 9.00132 26.2347 7.99241V7.99258C27.2505 6.98368 28.9034 6.98368 29.9193 7.99258L30.6566 8.72475C30.661 8.72914 30.6651 8.73386 30.6695 8.73825L32.0675 10.1256L36.3257 14.3541C37.3413 15.363 37.3413 17.0044 36.3257 18.0131ZM47.5395 5.67037L44.3739 8.81266L41.4961 9.3118C40.3117 9.51733 39.1197 9.24802 38.141 8.55365C37.1623 7.85911 36.5196 6.82692 36.3315 5.64708L36.1111 4.26526C36.1007 4.20047 36.1245 4.15204 36.1463 4.12302C36.168 4.09382 36.2076 4.05721 36.2732 4.04809L46.1197 2.68551C46.1939 2.67505 46.2678 2.67016 46.3414 2.67016C46.9348 2.67016 47.492 2.99684 47.7734 3.5277L48.4367 4.77925L47.5395 5.67037Z" fill="white"/>
</svg>
