<svg width="80" height="76" viewBox="0 0 80 76" fill="none" xmlns="http://www.w3.org/2000/svg">
<path d="M72.5049 16.6397H60.1184V13.0402C60.1184 12.3773 59.5886 11.8401 58.9349 11.8401H57.9095V10.1598C57.9095 4.55756 53.4143 0 47.8894 0H32.1106C26.5857 0 22.0911 4.55756 22.0911 10.1598V11.8401H21.0651C20.4114 11.8401 19.8816 12.3773 19.8816 13.0402V16.6403H15.365C14.7113 16.6403 14.1815 17.1775 14.1815 17.8397C14.1815 18.5026 14.7113 19.0398 15.365 19.0398H72.5049C75.3326 19.0398 77.6331 21.373 77.6331 24.2404V34.8C77.6331 37.2799 75.8911 39.4256 73.504 39.9009L44.9402 45.2674H35.0592L6.50818 39.9028C4.10889 39.4256 2.36694 37.2799 2.36694 34.8V24.2397C2.36694 21.3724 4.66736 19.0398 7.49512 19.0398H9.87183C10.5255 19.0398 11.0553 18.5026 11.0553 17.8397C11.0553 17.1769 10.5255 16.6397 9.87183 16.6397H7.49512C3.36243 16.6397 0 20.0492 0 24.2397V34.8C0 37.3164 1.22803 39.5964 3.15552 40.9902V68.3999C3.15552 72.5905 6.51794 76 10.6506 76H57.1204C57.774 76 58.3038 75.4628 58.3038 74.8C58.3038 74.1371 57.774 73.5999 57.1204 73.5999H10.6506C7.82288 73.5999 5.52246 71.2673 5.52246 68.3999V42.1296C5.70068 42.1791 5.88135 42.2237 6.06506 42.2602L33.7671 47.4651V60.0671C33.7671 60.5919 34.1034 61.0555 34.5978 61.2121L39.6472 62.8125C39.762 62.8484 39.881 62.867 40 62.867C40.119 62.867 40.238 62.8484 40.3528 62.8125L45.4022 61.2121C45.8966 61.0555 46.2329 60.5919 46.2329 60.0671V47.4651L73.9471 42.2583C74.1266 42.2224 74.303 42.1785 74.4775 42.1308V68.3999C74.4775 71.2679 72.1771 73.5999 69.3494 73.5999H62.6562C62.0026 73.5999 61.4728 74.1371 61.4728 74.8C61.4728 75.4628 62.0026 76 62.6562 76H69.3494C73.4821 76 76.8439 72.5905 76.8439 68.3999V40.9921C78.7701 39.5995 80 37.3177 80 34.8V24.2397C80 20.0492 76.6376 16.6397 72.5049 16.6397ZM24.4574 10.1598C24.4574 5.88076 27.8906 2.40008 32.1106 2.40008H47.8894C52.1094 2.40008 55.5426 5.88076 55.5426 10.1598V11.8401H52.8601V10.1598C52.8601 7.38097 50.6299 5.12014 47.8894 5.12014H45.2661C44.6124 5.12014 44.0826 5.65734 44.0826 6.31956C44.0826 6.9824 44.6124 7.51961 45.2661 7.51961H47.8894C49.325 7.51961 50.4932 8.70417 50.4932 10.1598V11.8401H49.4672C48.8135 11.8401 48.2837 12.3773 48.2837 13.0402V16.6403H31.7157V13.0402C31.7157 12.3773 31.1859 11.8401 30.5322 11.8401H29.5068V10.1598C29.5068 8.70417 30.675 7.51961 32.1106 7.51961H39.7632C40.4169 7.51961 40.9467 6.9824 40.9467 6.31956C40.9467 5.65734 40.4169 5.12014 39.7632 5.12014H32.1106C29.3701 5.12014 27.1399 7.38097 27.1399 10.1598V11.8401H24.4574V10.1598ZM22.2485 16.6397V14.2396H29.3494V16.6397H22.2485ZM50.6506 16.6397V14.2396H57.7515V16.6397H50.6506ZM36.134 47.6669H43.866V52.3067H36.134V47.6669ZM43.866 59.1846L40 60.41L36.134 59.1846V54.7068H43.866V59.1846Z" fill="#FAFAFA"/>
</svg>
