<svg width="95" height="89" viewBox="0 0 95 89" fill="none" xmlns="http://www.w3.org/2000/svg">
<path d="M4 43H90V81C90 85.4183 86.4183 89 82 89H12C7.58172 89 4 85.4183 4 81V43Z" fill="#945C29"/>
<path d="M0 29C0 24.5817 3.58172 21 8 21H86C90.4183 21 94 24.5817 94 29V41C94 45.4183 90.4183 49 86 49H8C3.58172 49 0 45.4183 0 41V29Z" fill="#945C29"/>
<path d="M44.0004 7.50016C33.6004 5.50016 32.3337 11.0002 33.0004 14.0002C33.0004 14.5002 31.9003 15.5003 27.5002 15.5003C25.9002 8.30057 31.8336 3.16709 35.0002 1.50032C40.5002 1.16698 53.1002 0.700315 59.5002 1.50032C65.9002 2.30032 67.5002 11.167 67.5002 15.5003C67.0002 15.3336 65.0002 14.8003 61.0002 14.0002C60.5002 5.5 57.5002 7.50016 44.0004 7.50016Z" fill="#945C29" stroke="#945C29"/>
<path d="M12.0395 87.8842C6.40791 87.6749 5 84.3082 5 82.6511C32.9905 82.6511 88.0977 81.0347 88.5 82.5C88.9023 83.9653 87.068 88.4998 80 88.4998C59.049 88.587 17.6712 88.0935 12.0395 87.8842Z" fill="#8D4E30"/>
<rect x="25" y="16" width="10" height="5" fill="#1F1010"/>
<rect x="59" y="16" width="10" height="5" fill="#1F1010"/>
<rect x="42" y="55" width="10" height="7" fill="#1F1010"/>
<rect opacity="0.5" x="42" y="64" width="10" height="7" fill="#F7E540"/>
<path d="M86.1932 19.4859H71.6391V15.2707C71.6391 14.4945 71.0166 13.8654 70.2486 13.8654H69.0437V11.8977C69.0437 5.33714 63.7618 0 57.2701 0H38.7299C32.2382 0 26.957 5.33714 26.957 11.8977V13.8654H25.7514C24.9834 13.8654 24.3609 14.4945 24.3609 15.2707V19.4867H19.0539C18.2858 19.4867 17.6633 20.1158 17.6633 20.8913C17.6633 21.6675 18.2858 22.2966 19.0539 22.2966H86.1932C89.5159 22.2966 92.2188 25.0289 92.2188 28.3867V40.7526C92.2188 43.6567 90.1721 46.1695 87.3672 46.7261L53.8047 53.0105H42.1946L8.64711 46.7283C5.82794 46.1695 3.78116 43.6567 3.78116 40.7526V28.386C3.78116 25.0282 6.48415 22.2966 9.80676 22.2966H12.5994C13.3675 22.2966 13.99 21.6675 13.99 20.8913C13.99 20.115 13.3675 19.4859 12.5994 19.4859H9.80676C4.95085 19.4859 1 23.4787 1 28.386V40.7526C1 43.6995 2.44293 46.3695 4.70773 48.0017V80.0999C4.70773 85.0073 8.65858 89 13.5145 89H68.1164C68.8845 89 69.507 88.3709 69.507 87.5947C69.507 86.8185 68.8845 86.1894 68.1164 86.1894H13.5145C10.1919 86.1894 7.48889 83.4578 7.48889 80.0999V49.336C7.6983 49.394 7.91058 49.4461 8.12645 49.4889L40.6763 55.5841V70.3417C40.6763 70.9563 41.0715 71.4992 41.6524 71.6825L47.5855 73.5568C47.7203 73.5988 47.8602 73.6206 48 73.6206C48.1398 73.6206 48.2797 73.5988 48.4145 73.5568L54.3476 71.6825C54.9285 71.4992 55.3237 70.9563 55.3237 70.3417V55.5841L87.8879 49.4867C88.0987 49.4447 88.306 49.3932 88.5111 49.3374V80.0999C88.5111 83.4585 85.8081 86.1894 82.4855 86.1894H74.6211C73.853 86.1894 73.2305 86.8185 73.2305 87.5947C73.2305 88.3709 73.853 89 74.6211 89H82.4855C87.3414 89 91.2915 85.0073 91.2915 80.0999V48.0039C93.5549 46.3731 95 43.701 95 40.7526V28.386C95 23.4787 91.0491 19.4859 86.1932 19.4859V19.4859ZM29.7374 11.8977C29.7374 6.88669 33.7715 2.81063 38.7299 2.81063H57.2701C62.2285 2.81063 66.2626 6.88669 66.2626 11.8977V13.8654H63.1106V11.8977C63.1106 8.64351 60.4901 5.99595 57.2701 5.99595H54.1877C53.4196 5.99595 52.7971 6.62505 52.7971 7.40054C52.7971 8.17676 53.4196 8.80585 54.1877 8.80585H57.2701C58.9568 8.80585 60.3295 10.193 60.3295 11.8977V13.8654H59.1239C58.3558 13.8654 57.7333 14.4945 57.7333 15.2707V19.4867H38.2659V15.2707C38.2659 14.4945 37.6434 13.8654 36.8754 13.8654H35.6705V11.8977C35.6705 10.193 37.0432 8.80585 38.7299 8.80585H47.7217C48.4898 8.80585 49.1123 8.17676 49.1123 7.40054C49.1123 6.62505 48.4898 5.99595 47.7217 5.99595H38.7299C35.5099 5.99595 32.8894 8.64351 32.8894 11.8977V13.8654H29.7374V11.8977ZM27.142 19.4859V16.6753H35.4855V19.4859H27.142ZM60.5145 19.4859V16.6753H68.858V19.4859H60.5145ZM43.4575 55.8204H52.5425V61.254H43.4575V55.8204ZM52.5425 69.3082L48 70.7433L43.4575 69.3082V64.0646H52.5425V69.3082Z" fill="#0F144C"/>
<path d="M83.5 48.8667C89.9 47.7467 91.8333 42.4889 92 40C92 40 79 46.5 46 46.5C13 46.5 1 40 1 40C1 44.48 3.66667 47.7778 5 48.8667L39.5 54H53.5C60.8333 52.7556 77.1 49.9867 83.5 48.8667Z" fill="#833A3A" fill-opacity="0.4"/>
</svg>
